<svg id="svg" version="1.1" xmlns="http://www.w3.org/2000/svg" xmlns:xlink="http://www.w3.org/1999/xlink" width="400" height="500.86206896551727" viewBox="0, 0, 400,500.86206896551727"><g id="svgg"><path id="path0" d="M59.457 58.600 C 59.127 58.930,58.750 59.200,58.618 59.200 C 58.487 59.200,57.574 60.005,56.589 60.989 L 54.800 62.779 54.800 249.926 L 54.800 437.073 56.560 438.936 C 57.529 439.961,58.519 440.800,58.760 440.800 C 59.002 440.800,59.200 440.980,59.200 441.200 C 59.200 442.102,106.946 441.707,107.600 440.800 C 107.917 440.360,108.338 440.000,108.534 440.000 C 108.731 440.000,109.501 439.335,110.246 438.522 L 111.600 437.044 111.600 298.522 C 111.600 206.441,111.734 160.000,112.000 160.000 C 112.220 160.000,112.400 160.283,112.400 160.629 C 112.400 161.347,113.334 162.400,113.971 162.400 C 114.207 162.400,114.400 162.850,114.400 163.400 C 114.400 163.950,114.580 164.400,114.800 164.400 C 115.020 164.400,115.200 164.720,115.200 165.112 C 115.200 165.503,115.560 166.083,116.000 166.400 C 116.440 166.717,116.800 167.257,116.800 167.600 C 116.800 167.943,117.160 168.483,117.600 168.800 C 118.040 169.117,118.400 169.787,118.400 170.288 C 118.400 170.832,118.642 171.200,119.000 171.200 C 119.330 171.200,119.600 171.520,119.600 171.912 C 119.600 172.303,119.960 172.883,120.400 173.200 C 120.840 173.517,121.200 174.063,121.200 174.413 C 121.200 174.763,121.560 175.436,122.000 175.908 C 122.440 176.380,122.800 177.004,122.800 177.295 C 122.800 177.586,123.160 178.083,123.600 178.400 C 124.040 178.717,124.400 179.297,124.400 179.688 C 124.400 180.080,124.670 180.400,125.000 180.400 C 125.358 180.400,125.600 180.768,125.600 181.312 C 125.600 181.813,125.960 182.483,126.400 182.800 C 126.840 183.117,127.200 183.657,127.200 184.000 C 127.200 184.343,127.560 184.883,128.000 185.200 C 128.440 185.517,128.800 186.187,128.800 186.688 C 128.800 187.190,128.980 187.600,129.200 187.600 C 129.420 187.600,129.600 187.960,129.600 188.400 C 129.600 188.840,129.793 189.200,130.029 189.200 C 130.666 189.200,131.600 190.253,131.600 190.971 C 131.600 191.317,131.780 191.600,132.000 191.600 C 132.220 191.600,132.400 191.870,132.400 192.200 C 132.400 192.530,132.580 192.800,132.800 192.800 C 133.020 192.800,133.200 193.160,133.200 193.600 C 133.200 194.040,133.380 194.400,133.600 194.400 C 133.820 194.400,134.000 194.720,134.000 195.112 C 134.000 195.503,134.360 196.083,134.800 196.400 C 135.240 196.717,135.600 197.272,135.600 197.632 C 135.600 197.993,136.050 198.626,136.600 199.039 C 137.150 199.452,137.600 200.107,137.600 200.495 C 137.600 200.883,137.780 201.200,138.000 201.200 C 138.220 201.200,138.400 201.560,138.400 202.000 C 138.400 202.440,138.580 202.800,138.800 202.800 C 139.020 202.800,139.200 203.070,139.200 203.400 C 139.200 203.730,139.380 204.000,139.600 204.000 C 139.820 204.000,140.000 204.283,140.000 204.629 C 140.000 205.347,140.934 206.400,141.571 206.400 C 141.807 206.400,142.000 206.760,142.000 207.200 C 142.000 207.640,142.180 208.000,142.400 208.000 C 142.620 208.000,142.800 208.410,142.800 208.912 C 142.800 209.413,143.160 210.083,143.600 210.400 C 144.040 210.717,144.400 211.257,144.400 211.600 C 144.400 211.943,144.760 212.483,145.200 212.800 C 145.640 213.117,146.000 213.704,146.000 214.105 C 146.000 214.843,146.277 215.266,147.900 217.001 C 148.395 217.530,148.800 218.242,148.800 218.582 C 148.800 218.922,148.980 219.200,149.200 219.200 C 149.420 219.200,149.600 219.470,149.600 219.800 C 149.600 220.130,149.780 220.400,150.000 220.400 C 150.220 220.400,150.400 220.760,150.400 221.200 C 150.400 221.640,150.580 222.000,150.800 222.000 C 151.020 222.000,151.200 222.283,151.200 222.629 C 151.200 223.347,152.134 224.400,152.771 224.400 C 153.007 224.400,153.200 224.810,153.200 225.312 C 153.200 225.813,153.560 226.483,154.000 226.800 C 154.440 227.117,154.800 227.697,154.800 228.088 C 154.800 228.480,154.980 228.800,155.200 228.800 C 155.420 228.800,155.600 229.160,155.600 229.600 C 155.600 230.040,155.780 230.400,156.000 230.400 C 156.220 230.400,156.400 230.670,156.400 231.000 C 156.400 231.330,156.580 231.600,156.800 231.600 C 157.020 231.600,157.200 231.930,157.200 232.332 C 157.200 232.735,157.650 233.306,158.200 233.600 C 158.750 233.894,159.200 234.465,159.200 234.868 C 159.200 235.270,159.380 235.600,159.600 235.600 C 159.820 235.600,160.000 236.010,160.000 236.512 C 160.000 237.013,160.360 237.683,160.800 238.000 C 161.240 238.317,161.600 238.857,161.600 239.200 C 161.600 239.543,161.960 240.083,162.400 240.400 C 162.840 240.717,163.200 241.303,163.200 241.701 C 163.200 242.099,163.470 242.529,163.800 242.655 C 164.130 242.782,164.400 243.187,164.400 243.554 C 164.400 243.922,164.760 244.483,165.200 244.800 C 165.640 245.117,166.000 245.697,166.000 246.088 C 166.000 246.480,166.180 246.800,166.400 246.800 C 166.620 246.800,166.800 247.070,166.800 247.400 C 166.800 247.730,166.980 248.000,167.200 248.000 C 167.420 248.000,167.600 248.360,167.600 248.800 C 167.600 249.240,167.780 249.600,168.000 249.600 C 168.220 249.600,168.400 249.845,168.400 250.144 C 168.400 250.443,168.850 251.026,169.400 251.439 C 169.950 251.852,170.400 252.557,170.400 253.007 C 170.400 253.456,170.760 254.083,171.200 254.400 C 171.640 254.717,172.000 255.257,172.000 255.600 C 172.000 255.943,172.360 256.483,172.800 256.800 C 173.240 257.117,173.600 257.579,173.600 257.827 C 173.600 258.643,174.747 260.589,175.581 261.188 C 176.031 261.512,176.400 262.057,176.400 262.400 C 176.400 262.743,176.760 263.283,177.200 263.600 C 177.640 263.917,178.000 264.587,178.000 265.088 C 178.000 265.590,178.180 266.000,178.400 266.000 C 178.620 266.000,178.800 266.283,178.800 266.629 C 178.800 267.347,179.734 268.400,180.371 268.400 C 180.607 268.400,180.800 268.810,180.800 269.312 C 180.800 269.813,181.160 270.483,181.600 270.800 C 182.040 271.117,182.400 271.697,182.400 272.088 C 182.400 272.480,182.580 272.800,182.800 272.800 C 183.020 272.800,183.200 273.120,183.200 273.512 C 183.200 273.903,183.560 274.483,184.000 274.800 C 184.440 275.117,184.800 275.710,184.800 276.117 C 184.800 276.928,185.694 278.000,186.371 278.000 C 186.607 278.000,186.800 278.360,186.800 278.800 C 186.800 279.240,186.980 279.600,187.200 279.600 C 187.420 279.600,187.600 279.926,187.600 280.325 C 187.600 280.723,187.960 281.436,188.400 281.908 C 188.840 282.380,189.200 283.004,189.200 283.295 C 189.200 283.586,189.560 284.083,190.000 284.400 C 190.440 284.717,190.800 285.303,190.800 285.701 C 190.800 286.099,191.070 286.529,191.400 286.655 C 191.730 286.782,192.000 287.187,192.000 287.554 C 192.000 287.922,192.360 288.483,192.800 288.800 C 193.240 289.117,193.600 289.657,193.600 290.000 C 193.600 290.343,193.960 290.883,194.400 291.200 C 194.840 291.517,195.200 292.187,195.200 292.688 C 195.200 293.190,195.380 293.600,195.600 293.600 C 195.820 293.600,196.000 293.930,196.000 294.332 C 196.000 294.735,196.450 295.306,197.000 295.600 C 197.582 295.911,198.000 296.488,198.000 296.979 C 198.000 297.444,198.360 298.083,198.800 298.400 C 199.240 298.717,199.600 299.297,199.600 299.688 C 199.600 300.080,199.780 300.400,200.000 300.400 C 200.220 300.400,200.400 300.720,200.400 301.112 C 200.400 301.503,200.760 302.083,201.200 302.400 C 201.640 302.717,202.000 303.272,202.000 303.632 C 202.000 303.993,202.450 304.626,203.000 305.039 C 203.550 305.452,204.000 306.107,204.000 306.495 C 204.000 306.883,204.180 307.200,204.400 307.200 C 204.620 307.200,204.800 307.526,204.800 307.925 C 204.800 308.323,205.160 309.036,205.600 309.508 C 206.040 309.980,206.400 310.604,206.400 310.895 C 206.400 311.186,206.760 311.683,207.200 312.000 C 207.640 312.317,208.000 312.897,208.000 313.288 C 208.000 313.680,208.270 314.000,208.600 314.000 C 208.958 314.000,209.200 314.368,209.200 314.912 C 209.200 315.413,209.560 316.083,210.000 316.400 C 210.440 316.717,210.800 317.257,210.800 317.600 C 210.800 317.943,211.160 318.483,211.600 318.800 C 212.040 319.117,212.400 319.787,212.400 320.288 C 212.400 320.790,212.580 321.200,212.800 321.200 C 213.020 321.200,213.200 321.445,213.200 321.744 C 213.200 322.043,213.650 322.626,214.200 323.039 C 214.750 323.452,215.200 324.107,215.200 324.495 C 215.200 324.883,215.380 325.200,215.600 325.200 C 215.820 325.200,216.000 325.470,216.000 325.800 C 216.000 326.130,216.180 326.400,216.400 326.400 C 216.620 326.400,216.800 326.760,216.800 327.200 C 216.800 327.640,216.980 328.000,217.200 328.000 C 217.420 328.000,217.600 328.283,217.600 328.629 C 217.600 329.347,218.534 330.400,219.171 330.400 C 219.407 330.400,219.600 330.810,219.600 331.312 C 219.600 331.813,219.960 332.483,220.400 332.800 C 220.840 333.117,221.200 333.657,221.200 334.000 C 221.200 334.343,221.560 334.883,222.000 335.200 C 222.440 335.517,222.800 336.187,222.800 336.688 C 222.800 337.190,222.980 337.600,223.200 337.600 C 223.420 337.600,223.600 337.883,223.600 338.229 C 223.600 338.947,224.534 340.000,225.171 340.000 C 225.407 340.000,225.600 340.360,225.600 340.800 C 225.600 341.240,225.780 341.600,226.000 341.600 C 226.220 341.600,226.400 341.870,226.400 342.200 C 226.400 342.530,226.580 342.800,226.800 342.800 C 227.020 342.800,227.200 343.160,227.200 343.600 C 227.200 344.040,227.380 344.400,227.600 344.400 C 227.820 344.400,228.000 344.720,228.000 345.112 C 228.000 345.503,228.360 346.083,228.800 346.400 C 229.240 346.717,229.600 347.272,229.600 347.632 C 229.600 347.993,230.050 348.626,230.600 349.039 C 231.150 349.452,231.600 350.107,231.600 350.495 C 231.600 350.883,231.780 351.200,232.000 351.200 C 232.220 351.200,232.400 351.560,232.400 352.000 C 232.400 352.440,232.580 352.800,232.800 352.800 C 233.020 352.800,233.200 353.070,233.200 353.400 C 233.200 353.730,233.380 354.000,233.600 354.000 C 233.820 354.000,234.000 354.320,234.000 354.712 C 234.000 355.103,234.360 355.683,234.800 356.000 C 235.240 356.317,235.600 356.897,235.600 357.288 C 235.600 357.680,235.870 358.000,236.200 358.000 C 236.558 358.000,236.800 358.368,236.800 358.912 C 236.800 359.413,237.160 360.083,237.600 360.400 C 238.040 360.717,238.400 361.257,238.400 361.600 C 238.400 361.943,238.760 362.483,239.200 362.800 C 239.640 363.117,240.000 363.787,240.000 364.288 C 240.000 364.790,240.180 365.200,240.400 365.200 C 240.620 365.200,240.800 365.445,240.800 365.744 C 240.800 366.043,241.250 366.626,241.800 367.039 C 242.350 367.452,242.800 368.107,242.800 368.495 C 242.800 368.883,242.980 369.200,243.200 369.200 C 243.420 369.200,243.600 369.470,243.600 369.800 C 243.600 370.130,243.780 370.400,244.000 370.400 C 244.220 370.400,244.400 370.760,244.400 371.200 C 244.400 371.640,244.580 372.000,244.800 372.000 C 245.020 372.000,245.200 372.320,245.200 372.712 C 245.200 373.103,245.560 373.683,246.000 374.000 C 246.440 374.317,246.800 374.799,246.800 375.070 C 246.800 375.342,247.250 376.014,247.800 376.564 C 248.350 377.114,248.800 377.842,248.800 378.182 C 248.800 378.522,248.980 378.800,249.200 378.800 C 249.420 378.800,249.600 379.078,249.600 379.417 C 249.600 379.756,249.960 380.420,250.400 380.892 C 250.840 381.364,251.200 382.000,251.200 382.304 C 251.200 382.960,252.164 384.000,252.771 384.000 C 253.007 384.000,253.200 384.360,253.200 384.800 C 253.200 385.240,253.380 385.600,253.600 385.600 C 253.820 385.600,254.000 386.010,254.000 386.512 C 254.000 387.013,254.360 387.683,254.800 388.000 C 255.240 388.317,255.600 388.857,255.600 389.200 C 255.600 389.543,255.960 390.083,256.400 390.400 C 256.840 390.717,257.200 391.213,257.200 391.502 C 257.200 392.156,258.342 393.984,259.290 394.847 C 259.680 395.203,260.000 395.748,260.000 396.059 C 260.000 396.369,260.360 396.883,260.800 397.200 C 261.240 397.517,261.600 398.187,261.600 398.688 C 261.600 399.190,261.780 399.600,262.000 399.600 C 262.220 399.600,262.400 399.883,262.400 400.229 C 262.400 400.947,263.334 402.000,263.971 402.000 C 264.207 402.000,264.400 402.410,264.400 402.912 C 264.400 403.413,264.760 404.083,265.200 404.400 C 265.640 404.717,266.000 405.257,266.000 405.600 C 266.000 405.943,266.360 406.483,266.800 406.800 C 267.240 407.117,267.600 407.579,267.600 407.827 C 267.600 408.643,268.747 410.589,269.581 411.188 C 270.031 411.512,270.400 412.057,270.400 412.400 C 270.400 412.743,270.760 413.283,271.200 413.600 C 271.640 413.917,272.000 414.587,272.000 415.088 C 272.000 415.590,272.180 416.000,272.400 416.000 C 272.620 416.000,272.800 416.320,272.800 416.712 C 272.800 417.103,273.160 417.683,273.600 418.000 C 274.040 418.317,274.400 418.872,274.400 419.232 C 274.400 419.593,274.850 420.226,275.400 420.639 C 275.950 421.052,276.400 421.707,276.400 422.095 C 276.400 422.483,276.580 422.800,276.800 422.800 C 277.020 422.800,277.200 423.120,277.200 423.512 C 277.200 423.903,277.560 424.483,278.000 424.800 C 278.440 425.117,278.800 425.710,278.800 426.117 C 278.800 426.928,279.694 428.000,280.371 428.000 C 280.607 428.000,280.800 428.360,280.800 428.800 C 280.800 429.240,280.980 429.600,281.200 429.600 C 281.420 429.600,281.600 429.926,281.600 430.325 C 281.600 430.723,281.960 431.436,282.400 431.908 C 282.840 432.380,283.200 433.004,283.200 433.295 C 283.200 433.586,283.560 434.083,284.000 434.400 C 284.440 434.717,284.800 435.297,284.800 435.688 C 284.800 436.080,284.980 436.400,285.200 436.400 C 285.420 436.400,285.600 436.691,285.600 437.047 C 285.600 437.852,288.586 440.800,289.400 440.800 C 289.730 440.800,290.000 440.980,290.000 441.200 C 290.000 441.462,298.600 441.600,315.000 441.600 C 331.400 441.600,340.000 441.462,340.000 441.200 C 340.000 440.980,340.325 440.800,340.722 440.800 C 341.758 440.800,344.400 438.247,344.400 437.246 C 344.400 436.781,344.580 436.400,344.800 436.400 C 345.066 436.400,345.200 374.008,345.200 250.024 C 345.200 126.204,345.066 63.564,344.800 63.400 C 344.580 63.264,344.400 62.873,344.400 62.530 C 344.400 61.786,341.677 59.200,340.893 59.200 C 340.591 59.200,340.073 58.930,339.743 58.600 C 338.837 57.694,291.963 57.694,291.057 58.600 C 290.727 58.930,290.258 59.200,290.015 59.200 C 289.371 59.200,286.800 61.874,286.800 62.544 C 286.800 62.858,286.530 63.218,286.200 63.345 C 285.668 63.549,285.600 78.679,285.600 196.187 C 285.600 284.329,285.466 328.800,285.200 328.800 C 284.980 328.800,284.800 328.480,284.800 328.088 C 284.800 327.697,284.440 327.117,284.000 326.800 C 283.560 326.483,283.200 325.813,283.200 325.312 C 283.200 324.810,283.020 324.400,282.800 324.400 C 282.580 324.400,282.400 324.080,282.400 323.688 C 282.400 323.297,282.040 322.717,281.600 322.400 C 281.160 322.083,280.800 321.503,280.800 321.112 C 280.800 320.720,280.530 320.400,280.200 320.400 C 279.870 320.400,279.600 320.130,279.600 319.800 C 279.600 319.470,279.420 319.200,279.200 319.200 C 278.980 319.200,278.800 318.840,278.800 318.400 C 278.800 317.960,278.620 317.600,278.400 317.600 C 278.180 317.600,278.000 317.280,278.000 316.888 C 278.000 316.497,277.640 315.917,277.200 315.600 C 276.760 315.283,276.400 314.690,276.400 314.283 C 276.400 313.472,275.506 312.400,274.829 312.400 C 274.593 312.400,274.400 312.040,274.400 311.600 C 274.400 311.160,274.220 310.800,274.000 310.800 C 273.780 310.800,273.600 310.440,273.600 310.000 C 273.600 309.560,273.420 309.200,273.200 309.200 C 272.980 309.200,272.800 308.930,272.800 308.600 C 272.800 308.270,272.620 308.000,272.400 308.000 C 272.180 308.000,272.000 307.680,272.000 307.288 C 272.000 306.897,271.640 306.317,271.200 306.000 C 270.760 305.683,270.400 305.103,270.400 304.712 C 270.400 304.320,270.130 304.000,269.800 304.000 C 269.442 304.000,269.200 303.632,269.200 303.088 C 269.200 302.587,268.840 301.917,268.400 301.600 C 267.960 301.283,267.600 300.743,267.600 300.400 C 267.600 300.057,267.240 299.517,266.800 299.200 C 266.360 298.883,266.000 298.213,266.000 297.712 C 266.000 297.210,265.864 296.800,265.698 296.800 C 265.531 296.800,265.156 296.260,264.864 295.600 C 264.572 294.940,264.078 294.400,263.766 294.400 C 263.455 294.400,263.200 294.040,263.200 293.600 C 263.200 293.160,263.020 292.800,262.800 292.800 C 262.580 292.800,262.400 292.530,262.400 292.200 C 262.400 291.870,262.220 291.600,262.000 291.600 C 261.780 291.600,261.600 291.240,261.600 290.800 C 261.600 290.360,261.420 290.000,261.200 290.000 C 260.980 290.000,260.800 289.680,260.800 289.288 C 260.800 288.897,260.440 288.317,260.000 288.000 C 259.560 287.683,259.200 287.128,259.200 286.768 C 259.200 286.407,258.750 285.774,258.200 285.361 C 257.650 284.948,257.200 284.293,257.200 283.905 C 257.200 283.517,257.020 283.200,256.800 283.200 C 256.580 283.200,256.400 282.840,256.400 282.400 C 256.400 281.960,256.220 281.600,256.000 281.600 C 255.780 281.600,255.600 281.330,255.600 281.000 C 255.600 280.670,255.420 280.400,255.200 280.400 C 254.980 280.400,254.800 280.080,254.800 279.688 C 254.800 279.297,254.440 278.717,254.000 278.400 C 253.560 278.083,253.200 277.503,253.200 277.112 C 253.200 276.720,252.930 276.400,252.600 276.400 C 252.242 276.400,252.000 276.032,252.000 275.488 C 252.000 274.987,251.640 274.317,251.200 274.000 C 250.760 273.683,250.400 273.143,250.400 272.800 C 250.400 272.457,250.040 271.917,249.600 271.600 C 249.160 271.283,248.794 270.748,248.787 270.412 C 248.771 269.620,247.842 268.400,247.256 268.400 C 247.005 268.400,246.800 268.040,246.800 267.600 C 246.800 267.160,246.620 266.800,246.400 266.800 C 246.180 266.800,246.000 266.522,246.000 266.183 C 246.000 265.844,245.640 265.180,245.200 264.708 C 244.760 264.236,244.400 263.563,244.400 263.213 C 244.400 262.863,244.040 262.317,243.600 262.000 C 243.160 261.683,242.800 261.103,242.800 260.712 C 242.800 260.320,242.620 260.000,242.400 260.000 C 242.180 260.000,242.000 259.665,242.000 259.256 C 242.000 258.847,241.550 258.174,241.000 257.761 C 240.450 257.348,240.000 256.733,240.000 256.393 C 240.000 256.054,239.640 255.517,239.200 255.200 C 238.760 254.883,238.400 254.314,238.400 253.935 C 238.400 253.557,238.220 253.136,238.000 253.000 C 237.780 252.864,237.600 252.481,237.600 252.148 C 237.600 251.449,236.657 250.400,236.029 250.400 C 235.793 250.400,235.600 250.080,235.600 249.688 C 235.600 249.297,235.240 248.717,234.800 248.400 C 234.360 248.083,234.000 247.413,234.000 246.912 C 234.000 246.410,233.820 246.000,233.600 246.000 C 233.380 246.000,233.200 245.680,233.200 245.288 C 233.200 244.897,232.840 244.317,232.400 244.000 C 231.960 243.683,231.600 243.116,231.600 242.741 C 231.600 242.365,231.150 241.704,230.600 241.271 C 230.050 240.839,229.600 240.196,229.600 239.842 C 229.600 239.489,229.420 239.200,229.200 239.200 C 228.980 239.200,228.800 238.880,228.800 238.488 C 228.800 238.097,228.440 237.517,228.000 237.200 C 227.560 236.883,227.200 236.253,227.200 235.800 C 227.200 235.347,226.840 234.717,226.400 234.400 C 225.960 234.083,225.600 233.503,225.600 233.112 C 225.600 232.720,225.330 232.400,225.000 232.400 C 224.670 232.400,224.400 232.074,224.400 231.675 C 224.400 231.277,224.040 230.564,223.600 230.092 C 223.160 229.620,222.800 228.996,222.800 228.705 C 222.800 228.414,222.440 227.917,222.000 227.600 C 221.560 227.283,221.200 226.703,221.200 226.312 C 221.200 225.920,221.020 225.600,220.800 225.600 C 220.580 225.600,220.400 225.265,220.400 224.856 C 220.400 224.447,219.950 223.774,219.400 223.361 C 218.850 222.948,218.400 222.333,218.400 221.993 C 218.400 221.654,218.040 221.117,217.600 220.800 C 217.160 220.483,216.800 219.813,216.800 219.312 C 216.800 218.810,216.620 218.400,216.400 218.400 C 216.180 218.400,216.000 218.080,216.000 217.688 C 216.000 217.297,215.640 216.717,215.200 216.400 C 214.760 216.083,214.400 215.503,214.400 215.112 C 214.400 214.720,214.130 214.400,213.800 214.400 C 213.470 214.400,213.200 214.130,213.200 213.800 C 213.200 213.470,213.020 213.200,212.800 213.200 C 212.580 213.200,212.400 212.840,212.400 212.400 C 212.400 211.960,212.220 211.600,212.000 211.600 C 211.780 211.600,211.600 211.280,211.600 210.888 C 211.600 210.497,211.240 209.917,210.800 209.600 C 210.360 209.283,210.000 208.690,210.000 208.283 C 210.000 207.472,209.106 206.400,208.429 206.400 C 208.193 206.400,208.000 206.040,208.000 205.600 C 208.000 205.160,207.820 204.800,207.600 204.800 C 207.380 204.800,207.200 204.440,207.200 204.000 C 207.200 203.560,207.020 203.200,206.800 203.200 C 206.580 203.200,206.400 202.930,206.400 202.600 C 206.400 202.270,206.220 202.000,206.000 202.000 C 205.780 202.000,205.600 201.680,205.600 201.288 C 205.600 200.897,205.240 200.317,204.800 200.000 C 204.360 199.683,204.000 199.103,204.000 198.712 C 204.000 198.320,203.820 198.000,203.600 198.000 C 203.380 198.000,203.200 197.665,203.200 197.256 C 203.200 196.847,202.750 196.174,202.200 195.761 C 201.650 195.348,201.200 194.733,201.200 194.393 C 201.200 194.054,200.840 193.517,200.400 193.200 C 199.960 192.883,199.600 192.213,199.600 191.712 C 199.600 191.210,199.420 190.800,199.200 190.800 C 198.980 190.800,198.800 190.517,198.800 190.171 C 198.800 189.453,197.866 188.400,197.229 188.400 C 196.993 188.400,196.800 188.040,196.800 187.600 C 196.800 187.160,196.620 186.800,196.400 186.800 C 196.180 186.800,196.000 186.530,196.000 186.200 C 196.000 185.870,195.820 185.600,195.600 185.600 C 195.380 185.600,195.200 185.240,195.200 184.800 C 195.200 184.360,195.020 184.000,194.800 184.000 C 194.580 184.000,194.400 183.680,194.400 183.288 C 194.400 182.897,194.040 182.317,193.600 182.000 C 193.160 181.683,192.800 181.116,192.800 180.741 C 192.800 180.365,192.350 179.704,191.800 179.271 C 191.250 178.839,190.800 178.196,190.800 177.842 C 190.800 177.489,190.620 177.200,190.400 177.200 C 190.180 177.200,190.000 176.840,190.000 176.400 C 190.000 175.960,189.820 175.600,189.600 175.600 C 189.380 175.600,189.200 175.330,189.200 175.000 C 189.200 174.670,189.020 174.400,188.800 174.400 C 188.580 174.400,188.400 174.080,188.400 173.688 C 188.400 173.297,188.040 172.717,187.600 172.400 C 187.160 172.083,186.800 171.503,186.800 171.112 C 186.800 170.720,186.530 170.400,186.200 170.400 C 185.842 170.400,185.600 170.032,185.600 169.488 C 185.600 168.987,185.240 168.317,184.800 168.000 C 184.360 167.683,184.000 167.143,184.000 166.800 C 184.000 166.457,183.640 165.917,183.200 165.600 C 182.760 165.283,182.400 164.613,182.400 164.112 C 182.400 163.610,182.264 163.200,182.098 163.200 C 181.931 163.200,181.556 162.660,181.264 162.000 C 180.972 161.340,180.478 160.800,180.166 160.800 C 179.855 160.800,179.600 160.440,179.600 160.000 C 179.600 159.560,179.420 159.200,179.200 159.200 C 178.980 159.200,178.800 158.930,178.800 158.600 C 178.800 158.270,178.620 158.000,178.400 158.000 C 178.180 158.000,178.000 157.640,178.000 157.200 C 178.000 156.760,177.820 156.400,177.600 156.400 C 177.380 156.400,177.200 156.080,177.200 155.688 C 177.200 155.297,176.840 154.717,176.400 154.400 C 175.960 154.083,175.600 153.528,175.600 153.168 C 175.600 152.807,175.150 152.174,174.600 151.761 C 174.050 151.348,173.600 150.693,173.600 150.305 C 173.600 149.917,173.420 149.600,173.200 149.600 C 172.980 149.600,172.800 149.240,172.800 148.800 C 172.800 148.360,172.620 148.000,172.400 148.000 C 172.180 148.000,172.000 147.730,172.000 147.400 C 172.000 147.070,171.820 146.800,171.600 146.800 C 171.380 146.800,171.200 146.517,171.200 146.171 C 171.200 145.453,170.266 144.400,169.629 144.400 C 169.393 144.400,169.200 144.080,169.200 143.688 C 169.200 143.297,168.840 142.717,168.400 142.400 C 167.960 142.083,167.600 141.413,167.600 140.912 C 167.600 140.410,167.420 140.000,167.200 140.000 C 166.980 140.000,166.800 139.680,166.800 139.288 C 166.800 138.897,166.440 138.317,166.000 138.000 C 165.560 137.683,165.200 137.116,165.200 136.741 C 165.200 136.365,164.750 135.704,164.200 135.271 C 163.650 134.839,163.200 134.196,163.200 133.842 C 163.200 133.489,163.020 133.200,162.800 133.200 C 162.580 133.200,162.400 132.922,162.400 132.583 C 162.400 132.244,162.040 131.580,161.600 131.108 C 161.160 130.636,160.800 129.963,160.800 129.613 C 160.800 129.263,160.440 128.717,160.000 128.400 C 159.560 128.083,159.200 127.503,159.200 127.112 C 159.200 126.720,158.930 126.400,158.600 126.400 C 158.242 126.400,158.000 126.032,158.000 125.488 C 158.000 124.987,157.640 124.317,157.200 124.000 C 156.760 123.683,156.400 123.143,156.400 122.800 C 156.400 122.457,156.040 121.917,155.600 121.600 C 155.160 121.283,154.800 120.714,154.800 120.335 C 154.800 119.957,154.620 119.536,154.400 119.400 C 154.180 119.264,154.000 118.881,154.000 118.548 C 154.000 117.849,153.057 116.800,152.429 116.800 C 152.193 116.800,152.000 116.480,152.000 116.088 C 152.000 115.697,151.640 115.117,151.200 114.800 C 150.760 114.483,150.400 113.813,150.400 113.312 C 150.400 112.810,150.220 112.400,150.000 112.400 C 149.780 112.400,149.600 112.080,149.600 111.688 C 149.600 111.297,149.240 110.717,148.800 110.400 C 148.360 110.083,148.000 109.528,148.000 109.168 C 148.000 108.807,147.550 108.174,147.000 107.761 C 146.450 107.348,146.000 106.693,146.000 106.305 C 146.000 105.917,145.820 105.600,145.600 105.600 C 145.380 105.600,145.200 105.280,145.200 104.888 C 145.200 104.497,144.840 103.917,144.400 103.600 C 143.960 103.283,143.600 102.653,143.600 102.200 C 143.600 101.747,143.240 101.117,142.800 100.800 C 142.360 100.483,142.000 99.903,142.000 99.512 C 142.000 99.120,141.730 98.800,141.400 98.800 C 141.070 98.800,140.800 98.474,140.800 98.075 C 140.800 97.677,140.440 96.964,140.000 96.492 C 139.560 96.020,139.200 95.396,139.200 95.105 C 139.200 94.814,138.840 94.317,138.400 94.000 C 137.960 93.683,137.600 93.103,137.600 92.712 C 137.600 92.320,137.420 92.000,137.200 92.000 C 136.980 92.000,136.800 91.665,136.800 91.256 C 136.800 90.847,136.350 90.174,135.800 89.761 C 135.250 89.348,134.800 88.733,134.800 88.393 C 134.800 88.054,134.440 87.517,134.000 87.200 C 133.560 86.883,133.200 86.213,133.200 85.712 C 133.200 85.210,133.020 84.800,132.800 84.800 C 132.580 84.800,132.400 84.480,132.400 84.088 C 132.400 83.697,132.040 83.117,131.600 82.800 C 131.160 82.483,130.800 81.903,130.800 81.512 C 130.800 81.120,130.530 80.800,130.200 80.800 C 129.870 80.800,129.600 80.530,129.600 80.200 C 129.600 79.870,129.420 79.600,129.200 79.600 C 128.980 79.600,128.800 79.240,128.800 78.800 C 128.800 78.360,128.620 78.000,128.400 78.000 C 128.180 78.000,128.000 77.680,128.000 77.288 C 128.000 76.897,127.640 76.317,127.200 76.000 C 126.760 75.683,126.400 75.090,126.400 74.683 C 126.400 73.872,125.506 72.800,124.829 72.800 C 124.593 72.800,124.400 72.440,124.400 72.000 C 124.400 71.560,124.220 71.200,124.000 71.200 C 123.780 71.200,123.600 70.840,123.600 70.400 C 123.600 69.960,123.420 69.600,123.200 69.600 C 122.980 69.600,122.800 69.330,122.800 69.000 C 122.800 68.670,122.620 68.400,122.400 68.400 C 122.180 68.400,122.000 68.080,122.000 67.688 C 122.000 67.297,121.640 66.717,121.200 66.400 C 120.760 66.083,120.400 65.503,120.400 65.112 C 120.400 64.720,120.130 64.400,119.800 64.400 C 119.464 64.400,119.200 64.043,119.200 63.589 C 119.200 62.875,116.004 59.200,115.382 59.200 C 115.250 59.200,114.873 58.930,114.543 58.600 C 114.021 58.079,110.416 58.000,87.000 58.000 C 63.584 58.000,59.979 58.079,59.457 58.600 M113.375 69.814 C 114.599 71.691,115.600 73.327,115.600 73.448 C 115.600 73.570,116.112 74.419,116.738 75.335 C 119.382 79.203,126.800 91.200,126.800 91.608 C 126.800 91.787,126.935 91.993,127.100 92.067 C 127.531 92.258,129.600 95.506,129.600 95.991 C 129.600 96.216,129.780 96.400,130.000 96.400 C 130.220 96.400,130.400 96.572,130.400 96.782 C 130.400 96.992,131.570 98.966,133.000 101.170 C 134.430 103.374,135.600 105.362,135.600 105.588 C 135.600 105.815,135.780 106.000,136.000 106.000 C 136.220 106.000,136.400 106.178,136.400 106.396 C 136.400 106.614,137.750 108.872,139.400 111.413 C 141.050 113.954,142.400 116.114,142.400 116.213 C 142.400 116.312,143.750 118.472,145.400 121.013 C 147.050 123.554,148.400 125.714,148.400 125.813 C 148.400 125.912,149.750 128.072,151.400 130.613 C 153.050 133.154,154.400 135.329,154.400 135.445 C 154.400 135.561,154.985 136.494,155.700 137.519 C 156.415 138.544,157.090 139.576,157.200 139.812 C 157.400 140.242,160.533 145.231,165.666 153.294 C 167.170 155.656,168.400 157.673,168.400 157.777 C 168.400 157.881,169.750 160.046,171.400 162.587 C 173.050 165.128,174.400 167.386,174.400 167.604 C 174.400 167.822,174.580 168.000,174.800 168.000 C 175.020 168.000,175.200 168.169,175.200 168.376 C 175.200 168.583,176.614 170.968,178.342 173.676 C 182.701 180.505,186.923 187.225,187.400 188.092 C 188.138 189.432,199.127 206.938,204.862 215.909 C 206.588 218.609,208.000 220.896,208.000 220.991 C 208.000 221.086,209.170 222.966,210.600 225.170 C 212.030 227.374,213.200 229.362,213.200 229.588 C 213.200 229.815,213.380 230.000,213.600 230.000 C 213.820 230.000,214.000 230.270,214.000 230.600 C 214.000 230.930,214.180 231.200,214.400 231.200 C 214.620 231.200,214.800 231.374,214.800 231.586 C 214.800 231.798,215.790 233.507,217.000 235.382 C 218.210 237.258,219.200 238.892,219.200 239.013 C 219.200 239.135,219.384 239.451,219.610 239.717 C 220.210 240.425,226.000 249.616,226.000 249.861 C 226.000 249.975,226.510 250.819,227.134 251.735 C 229.197 254.764,232.000 259.187,232.000 259.411 C 232.000 259.533,232.341 260.120,232.758 260.716 C 233.986 262.471,240.800 273.219,240.800 273.400 C 240.800 273.492,242.150 275.646,243.800 278.187 C 245.450 280.728,246.800 282.888,246.800 282.986 C 246.800 283.083,247.970 284.966,249.400 287.170 C 250.830 289.374,252.000 291.263,252.000 291.368 C 252.000 291.474,253.350 293.630,255.000 296.161 C 256.650 298.692,258.000 300.951,258.000 301.181 C 258.000 301.411,258.180 301.600,258.400 301.600 C 258.620 301.600,258.800 301.769,258.800 301.976 C 258.800 302.183,260.213 304.568,261.940 307.276 C 263.666 309.984,266.433 314.360,268.088 317.000 C 269.743 319.640,272.226 323.600,273.606 325.800 C 274.985 328.000,276.314 330.160,276.558 330.600 C 276.801 331.040,277.586 332.242,278.301 333.272 C 279.015 334.302,279.600 335.240,279.600 335.358 C 279.600 335.476,280.754 337.334,282.164 339.486 C 283.574 341.639,284.953 343.895,285.228 344.500 C 285.503 345.105,285.880 345.600,286.064 345.600 C 286.249 345.600,286.400 345.774,286.400 345.987 C 286.400 346.199,287.086 347.435,287.925 348.733 C 288.764 350.030,289.768 351.971,290.156 353.046 C 290.544 354.121,291.019 355.360,291.211 355.800 C 291.403 356.240,291.829 357.410,292.158 358.400 C 294.527 365.532,294.952 366.088,294.602 361.600 C 294.457 359.730,294.259 292.543,294.163 212.297 L 293.989 66.393 315.495 66.497 L 337.000 66.600 337.000 250.000 L 337.000 433.400 315.200 433.491 L 293.400 433.583 292.000 431.329 C 291.230 430.089,290.326 428.608,289.990 428.038 C 289.309 426.879,289.480 427.149,284.451 419.306 C 282.443 416.174,280.800 413.429,280.800 413.206 C 280.800 412.983,280.620 412.800,280.400 412.800 C 280.180 412.800,280.000 412.624,280.000 412.410 C 280.000 412.195,278.830 410.211,277.400 408.000 C 275.970 405.789,274.800 403.805,274.800 403.590 C 274.800 403.376,274.620 403.200,274.400 403.200 C 274.180 403.200,274.000 403.027,274.000 402.816 C 274.000 402.606,272.711 400.401,271.136 397.916 C 269.560 395.432,267.040 391.458,265.536 389.084 C 264.031 386.709,262.800 384.677,262.800 384.567 C 262.800 384.456,262.616 384.149,262.391 383.883 C 261.840 383.234,256.800 375.178,256.800 374.948 C 256.800 374.848,256.617 374.549,256.393 374.283 C 256.169 374.017,254.070 370.740,251.729 367.000 C 249.388 363.260,246.062 357.991,244.337 355.291 C 242.611 352.591,241.200 350.303,241.200 350.208 C 241.200 350.112,239.850 347.954,238.200 345.413 C 236.550 342.872,235.200 340.712,235.200 340.613 C 235.200 340.514,233.884 338.401,232.275 335.917 C 230.666 333.433,229.229 331.130,229.082 330.800 C 228.935 330.470,227.705 328.490,226.349 326.400 C 224.994 324.310,223.686 322.240,223.442 321.800 C 223.198 321.360,222.414 320.158,221.699 319.128 C 220.985 318.098,220.400 317.145,220.400 317.010 C 220.400 316.875,219.535 315.467,218.477 313.882 C 217.419 312.297,216.024 310.124,215.377 309.054 C 214.730 307.983,214.020 306.809,213.800 306.445 C 213.268 305.564,208.604 298.162,204.834 292.214 C 203.165 289.581,201.620 287.108,201.400 286.717 C 201.180 286.327,200.010 284.441,198.800 282.527 C 197.590 280.612,196.223 278.405,195.762 277.623 C 195.301 276.840,194.055 274.850,192.993 273.200 C 188.831 266.734,184.400 259.514,184.400 259.199 C 184.400 259.016,184.265 258.807,184.100 258.733 C 183.786 258.594,180.800 254.151,180.800 253.823 C 180.800 253.719,179.450 251.554,177.800 249.013 C 176.150 246.472,174.800 244.312,174.800 244.213 C 174.800 244.114,173.450 241.954,171.800 239.413 C 170.150 236.872,168.800 234.712,168.800 234.613 C 168.800 234.514,167.450 232.354,165.800 229.813 C 164.150 227.272,162.800 225.096,162.800 224.979 C 162.800 224.862,162.616 224.549,162.392 224.283 C 162.020 223.843,158.134 217.683,157.053 215.820 C 156.804 215.392,156.465 214.852,156.300 214.620 C 155.446 213.422,153.200 209.898,153.200 209.755 C 153.200 209.664,152.358 208.288,151.329 206.695 C 150.300 205.103,149.068 203.170,148.591 202.400 C 148.113 201.630,146.255 198.701,144.461 195.891 C 142.668 193.081,141.200 190.698,141.200 190.595 C 141.200 190.492,139.850 188.328,138.200 185.787 C 136.550 183.246,135.200 180.994,135.200 180.783 C 135.200 180.572,135.020 180.400,134.800 180.400 C 134.580 180.400,134.400 180.215,134.400 179.988 C 134.400 179.762,133.266 177.827,131.879 175.688 C 130.493 173.550,129.236 171.530,129.086 171.200 C 128.937 170.870,127.731 168.917,126.407 166.860 C 125.083 164.803,124.000 162.958,124.000 162.760 C 124.000 162.562,123.849 162.400,123.664 162.400 C 123.479 162.400,122.846 161.515,122.257 160.434 C 121.668 159.352,120.110 156.827,118.793 154.822 C 117.477 152.818,116.400 151.069,116.400 150.937 C 116.400 150.804,115.770 149.819,115.000 148.747 C 114.230 147.675,113.600 146.728,113.600 146.642 C 113.600 146.556,112.641 144.958,111.468 143.091 C 110.296 141.223,109.108 139.089,108.828 138.348 C 108.059 136.310,107.756 135.572,106.840 133.504 C 106.378 132.462,106.000 131.461,106.000 131.279 C 106.000 130.981,105.363 129.505,104.066 126.800 C 103.685 126.005,103.645 127.232,103.872 132.800 C 104.029 136.650,104.167 205.860,104.179 286.600 L 104.200 433.400 83.500 433.504 L 62.800 433.607 62.800 250.004 L 62.800 66.400 86.975 66.400 L 111.150 66.400 113.375 69.814 " stroke="none" fill="#04f7f7" fill-rule="evenodd"></path><path id="path1" d="M63.200 250.000 L 63.200 433.200 83.202 433.200 L 103.203 433.200 103.031 282.500 C 102.936 199.615,102.743 129.931,102.602 127.648 C 102.220 121.489,103.309 121.923,105.990 129.000 C 106.490 130.321,107.271 132.156,107.647 132.895 C 107.841 133.277,108.000 133.952,108.000 134.395 C 108.000 134.838,108.180 135.200,108.400 135.200 C 108.620 135.200,108.806 135.515,108.813 135.900 C 108.820 136.285,109.090 136.949,109.413 137.376 C 109.736 137.804,110.000 138.406,110.000 138.715 C 110.000 139.024,110.339 139.754,110.753 140.338 C 111.167 140.922,111.870 142.050,112.316 142.845 C 114.018 145.886,114.206 146.206,114.400 146.400 C 114.978 146.978,118.400 152.449,118.400 152.795 C 118.400 153.018,118.580 153.200,118.800 153.200 C 119.020 153.200,119.200 153.545,119.200 153.967 C 119.200 154.388,119.347 154.793,119.526 154.867 C 119.959 155.043,123.600 160.715,123.600 161.212 C 123.600 161.426,123.780 161.600,124.000 161.600 C 124.220 161.600,124.400 161.870,124.400 162.200 C 124.400 162.530,124.580 162.800,124.800 162.800 C 125.020 162.800,125.200 162.984,125.200 163.209 C 125.200 163.570,127.067 166.681,127.596 167.200 C 127.708 167.310,128.025 167.805,128.300 168.300 C 129.316 170.128,129.807 170.970,130.100 171.380 C 130.960 172.586,133.395 176.358,134.015 177.445 C 135.504 180.056,135.809 180.572,136.108 180.980 C 136.601 181.651,139.231 185.789,142.733 191.400 C 144.518 194.260,146.163 196.817,146.389 197.083 C 146.615 197.349,146.800 197.829,146.800 198.150 C 146.800 198.471,146.947 198.793,147.126 198.867 C 147.559 199.043,151.200 204.715,151.200 205.212 C 151.200 205.426,151.336 205.600,151.502 205.600 C 151.669 205.600,152.059 206.185,152.370 206.900 C 152.681 207.615,153.053 208.290,153.197 208.400 C 153.670 208.763,157.200 214.417,157.200 214.812 C 157.200 215.026,157.380 215.200,157.600 215.200 C 157.820 215.200,158.000 215.408,158.000 215.662 C 158.000 215.916,158.450 216.714,159.000 217.436 C 159.550 218.157,160.000 218.939,160.000 219.173 C 160.000 219.408,160.180 219.600,160.400 219.600 C 160.620 219.600,160.800 219.793,160.800 220.028 C 160.800 220.263,161.340 221.241,162.000 222.200 C 162.660 223.159,163.200 224.137,163.200 224.372 C 163.200 224.607,163.380 224.800,163.600 224.800 C 163.820 224.800,164.000 224.984,164.000 225.209 C 164.000 225.694,166.069 228.942,166.500 229.133 C 166.665 229.207,166.800 229.444,166.800 229.661 C 166.800 229.878,167.340 230.841,168.000 231.800 C 168.660 232.759,169.200 233.722,169.200 233.939 C 169.200 234.156,169.335 234.393,169.500 234.467 C 169.827 234.612,171.584 237.235,172.776 239.357 C 174.327 242.120,174.618 242.580,175.300 243.355 C 175.685 243.793,176.000 244.296,176.000 244.474 C 176.000 244.653,176.630 245.675,177.400 246.747 C 178.170 247.819,178.800 248.807,178.800 248.944 C 178.800 249.081,180.150 251.272,181.800 253.813 C 183.450 256.354,184.800 258.606,184.800 258.817 C 184.800 259.028,184.980 259.200,185.200 259.200 C 185.420 259.200,185.600 259.382,185.600 259.604 C 185.600 259.826,186.590 261.542,187.800 263.418 C 189.010 265.293,190.000 267.002,190.000 267.214 C 190.000 267.426,190.180 267.600,190.400 267.600 C 190.620 267.600,190.800 267.870,190.800 268.200 C 190.800 268.530,190.980 268.800,191.200 268.800 C 191.420 268.800,191.600 268.974,191.600 269.186 C 191.600 269.398,192.590 271.107,193.800 272.982 C 195.010 274.858,196.000 276.574,196.000 276.796 C 196.000 277.018,196.180 277.200,196.400 277.200 C 196.620 277.200,196.800 277.470,196.800 277.800 C 196.800 278.130,196.980 278.400,197.200 278.400 C 197.420 278.400,197.600 278.608,197.600 278.862 C 197.600 279.116,198.036 279.896,198.569 280.595 C 199.102 281.294,199.895 282.501,200.331 283.278 C 201.670 285.660,202.187 286.542,202.506 286.980 C 204.102 289.175,208.000 295.580,208.000 296.008 C 208.000 296.187,208.136 296.393,208.302 296.467 C 208.468 296.540,209.340 297.770,210.239 299.200 C 211.139 300.630,213.163 303.832,214.737 306.316 C 216.312 308.801,217.600 311.006,217.600 311.216 C 217.600 311.427,217.780 311.600,218.000 311.600 C 218.220 311.600,218.400 311.870,218.400 312.200 C 218.400 312.530,218.580 312.800,218.800 312.800 C 219.020 312.800,219.200 313.145,219.200 313.567 C 219.200 313.988,219.347 314.393,219.526 314.467 C 219.959 314.643,223.600 320.315,223.600 320.812 C 223.600 321.026,223.780 321.200,224.000 321.200 C 224.220 321.200,224.400 321.377,224.400 321.592 C 224.400 321.808,225.075 323.005,225.900 324.251 C 228.013 327.445,229.173 329.303,229.488 330.000 C 229.638 330.330,229.906 330.780,230.085 331.000 C 231.260 332.442,235.600 339.557,235.600 340.041 C 235.600 340.238,235.780 340.400,236.000 340.400 C 236.220 340.400,236.400 340.601,236.400 340.846 C 236.400 341.092,237.030 342.151,237.800 343.200 C 238.570 344.249,239.200 345.308,239.200 345.554 C 239.200 345.799,239.336 346.000,239.502 346.000 C 239.669 346.000,240.059 346.585,240.370 347.300 C 240.681 348.015,241.056 348.690,241.202 348.800 C 241.501 349.024,244.146 353.131,245.223 355.045 C 246.741 357.739,247.025 358.187,247.700 358.955 C 248.085 359.393,248.400 359.896,248.400 360.074 C 248.400 360.253,249.030 361.275,249.800 362.347 C 250.570 363.419,251.200 364.499,251.200 364.748 C 251.200 364.996,251.380 365.200,251.600 365.200 C 251.820 365.200,252.000 365.381,252.000 365.603 C 252.000 365.825,253.170 367.803,254.600 370.000 C 256.030 372.197,257.200 374.175,257.200 374.397 C 257.200 374.619,257.380 374.800,257.600 374.800 C 257.820 374.800,258.000 375.008,258.000 375.262 C 258.000 375.516,258.435 376.294,258.966 376.991 C 260.156 378.551,261.956 381.557,262.264 382.500 C 262.390 382.885,262.652 383.200,262.847 383.200 C 263.041 383.200,263.200 383.470,263.200 383.800 C 263.200 384.130,263.380 384.400,263.600 384.400 C 263.820 384.400,264.000 384.574,264.000 384.786 C 264.000 384.998,264.990 386.707,266.200 388.582 C 267.410 390.458,268.400 392.174,268.400 392.396 C 268.400 392.618,268.580 392.800,268.800 392.800 C 269.020 392.800,269.200 393.055,269.200 393.367 C 269.200 393.678,269.335 393.993,269.500 394.067 C 269.827 394.212,271.584 396.835,272.776 398.957 C 274.053 401.230,274.589 402.143,274.902 402.580 C 276.571 404.902,278.800 408.450,278.800 408.782 C 278.800 409.012,278.980 409.200,279.200 409.200 C 279.420 409.200,279.600 409.382,279.600 409.604 C 279.600 409.826,280.590 411.542,281.800 413.418 C 283.010 415.293,284.000 417.002,284.000 417.214 C 284.000 417.426,284.180 417.600,284.400 417.600 C 284.620 417.600,284.800 417.870,284.800 418.200 C 284.800 418.530,284.980 418.800,285.200 418.800 C 285.420 418.800,285.600 419.160,285.600 419.600 C 285.600 420.040,285.741 420.400,285.914 420.400 C 286.086 420.400,286.568 420.985,286.984 421.700 C 287.399 422.415,287.843 423.090,287.970 423.200 C 288.356 423.535,289.635 425.756,289.871 426.500 C 289.993 426.885,290.252 427.200,290.447 427.200 C 290.641 427.200,290.800 427.470,290.800 427.800 C 290.800 428.130,290.980 428.400,291.200 428.400 C 291.420 428.400,291.600 428.582,291.600 428.805 C 291.600 429.027,292.185 430.104,292.900 431.197 L 294.200 433.186 315.100 433.193 L 336.000 433.200 336.000 250.000 L 336.000 66.800 315.597 66.800 L 295.195 66.800 295.358 215.100 C 295.448 296.665,295.584 364.284,295.661 365.364 C 295.834 367.810,295.189 368.143,294.210 366.110 C 293.810 365.280,293.329 364.287,293.141 363.905 C 292.954 363.523,292.800 362.848,292.800 362.405 C 292.800 361.962,292.620 361.600,292.400 361.600 C 292.180 361.600,292.000 361.161,292.000 360.624 C 292.000 360.087,291.820 359.536,291.600 359.400 C 291.380 359.264,291.200 358.724,291.200 358.200 C 291.200 357.676,291.040 357.148,290.844 357.027 C 290.649 356.906,290.365 356.311,290.214 355.704 C 289.920 354.523,287.638 349.533,287.239 349.200 C 287.018 349.015,286.560 348.252,285.438 346.200 C 285.197 345.760,284.908 345.310,284.796 345.200 C 284.267 344.681,282.400 341.570,282.400 341.209 C 282.400 340.984,282.220 340.800,282.000 340.800 C 281.780 340.800,281.600 340.628,281.600 340.418 C 281.600 340.208,280.430 338.234,279.000 336.030 C 277.570 333.826,276.400 331.838,276.400 331.612 C 276.400 331.385,276.220 331.200,276.000 331.200 C 275.780 331.200,275.600 331.028,275.600 330.818 C 275.600 330.608,274.430 328.634,273.000 326.430 C 271.570 324.226,270.400 322.238,270.400 322.012 C 270.400 321.785,270.220 321.600,270.000 321.600 C 269.780 321.600,269.600 321.426,269.600 321.214 C 269.600 321.001,268.610 319.309,267.400 317.452 C 266.190 315.596,265.200 313.880,265.200 313.639 C 265.200 313.397,265.050 313.200,264.868 313.200 C 264.685 313.200,264.289 312.705,263.988 312.100 C 263.687 311.495,263.040 310.445,262.551 309.767 C 262.062 309.089,261.305 307.899,260.869 307.122 C 259.267 304.271,258.986 303.825,258.300 303.045 C 257.915 302.607,257.600 302.104,257.600 301.926 C 257.600 301.747,256.970 300.725,256.200 299.653 C 255.430 298.581,254.800 297.578,254.800 297.424 C 254.800 297.270,254.260 296.359,253.600 295.400 C 252.940 294.441,252.400 293.463,252.400 293.228 C 252.400 292.993,252.220 292.800,252.000 292.800 C 251.780 292.800,251.600 292.545,251.600 292.233 C 251.600 291.922,251.465 291.607,251.300 291.533 C 250.869 291.342,248.800 288.094,248.800 287.609 C 248.800 287.384,248.641 287.200,248.447 287.200 C 248.252 287.200,247.993 286.885,247.871 286.500 C 247.591 285.617,246.398 283.660,245.558 282.704 C 245.205 282.302,244.575 281.261,244.158 280.391 C 243.741 279.521,243.265 278.807,243.100 278.805 C 242.935 278.802,242.800 278.530,242.800 278.200 C 242.800 277.870,242.620 277.600,242.400 277.600 C 242.180 277.600,242.000 277.426,242.000 277.214 C 242.000 277.002,241.010 275.293,239.800 273.418 C 238.590 271.542,237.600 269.826,237.600 269.604 C 237.600 269.382,237.420 269.200,237.200 269.200 C 236.980 269.200,236.800 268.930,236.800 268.600 C 236.800 268.270,236.620 268.000,236.400 268.000 C 236.180 268.000,236.000 267.826,236.000 267.614 C 236.000 267.402,235.010 265.693,233.800 263.818 C 232.590 261.942,231.600 260.226,231.600 260.004 C 231.600 259.782,231.420 259.600,231.200 259.600 C 230.980 259.600,230.800 259.428,230.800 259.218 C 230.800 259.008,229.630 257.034,228.200 254.830 C 226.770 252.626,225.600 250.638,225.600 250.412 C 225.600 250.185,225.420 250.000,225.200 250.000 C 224.980 250.000,224.800 249.796,224.800 249.548 C 224.800 249.299,224.170 248.219,223.400 247.147 C 222.630 246.075,222.000 245.019,222.000 244.799 C 222.000 244.580,221.820 244.400,221.600 244.400 C 221.380 244.400,221.200 244.130,221.200 243.800 C 221.200 243.470,221.020 243.200,220.800 243.200 C 220.580 243.200,220.400 242.840,220.400 242.400 C 220.400 241.960,220.250 241.600,220.068 241.600 C 219.885 241.600,219.480 241.105,219.169 240.500 C 218.857 239.895,218.017 238.569,217.301 237.552 C 216.586 236.536,216.000 235.501,216.000 235.252 C 216.000 235.004,215.864 234.800,215.698 234.800 C 215.531 234.800,215.136 234.215,214.820 233.500 C 214.503 232.785,213.920 231.851,213.522 231.425 C 213.125 230.998,212.800 230.428,212.800 230.158 C 212.800 229.888,212.665 229.607,212.500 229.533 C 212.069 229.342,210.000 226.094,210.000 225.609 C 210.000 225.384,209.820 225.200,209.600 225.200 C 209.380 225.200,209.200 225.019,209.200 224.797 C 209.200 224.575,208.030 222.597,206.600 220.400 C 205.170 218.203,204.000 216.225,204.000 216.003 C 204.000 215.781,203.820 215.600,203.600 215.600 C 203.380 215.600,203.200 215.240,203.200 214.800 C 203.200 214.360,203.050 214.000,202.868 214.000 C 202.685 214.000,202.280 213.505,201.968 212.900 C 201.656 212.295,201.309 211.710,201.197 211.600 C 200.669 211.084,198.800 207.971,198.800 207.609 C 198.800 207.384,198.620 207.200,198.400 207.200 C 198.180 207.200,198.000 206.930,198.000 206.600 C 198.000 206.270,197.820 206.000,197.600 206.000 C 197.380 206.000,197.200 205.826,197.200 205.614 C 197.200 205.402,196.210 203.693,195.000 201.818 C 193.790 199.942,192.800 198.226,192.800 198.004 C 192.800 197.782,192.620 197.600,192.400 197.600 C 192.180 197.600,192.000 197.404,192.000 197.165 C 192.000 196.926,191.479 195.981,190.841 195.065 C 188.900 192.275,186.800 188.807,186.800 188.392 C 186.800 188.177,186.620 188.000,186.400 188.000 C 186.180 188.000,186.000 187.818,186.000 187.595 C 186.000 187.116,182.336 181.460,181.900 181.267 C 181.735 181.193,181.600 180.788,181.600 180.367 C 181.600 179.945,181.450 179.600,181.268 179.600 C 181.085 179.600,180.680 179.105,180.369 178.500 C 180.057 177.895,179.217 176.569,178.501 175.552 C 177.786 174.536,177.200 173.501,177.200 173.252 C 177.200 173.004,177.064 172.800,176.898 172.800 C 176.731 172.800,176.336 172.215,176.020 171.500 C 175.703 170.785,175.120 169.851,174.722 169.425 C 174.325 168.998,174.000 168.428,174.000 168.158 C 174.000 167.888,173.865 167.607,173.700 167.533 C 173.269 167.342,171.200 164.094,171.200 163.609 C 171.200 163.384,171.020 163.200,170.800 163.200 C 170.580 163.200,170.400 163.007,170.400 162.772 C 170.400 162.537,169.860 161.559,169.200 160.600 C 168.540 159.641,168.000 158.678,168.000 158.461 C 168.000 158.244,167.865 158.007,167.700 157.933 C 167.269 157.742,165.200 154.494,165.200 154.009 C 165.200 153.784,165.041 153.600,164.847 153.600 C 164.652 153.600,164.393 153.285,164.271 152.900 C 163.991 152.017,162.798 150.060,161.958 149.104 C 161.605 148.702,160.975 147.661,160.558 146.791 C 160.141 145.921,159.665 145.207,159.500 145.205 C 159.335 145.202,159.200 144.930,159.200 144.600 C 159.200 144.270,159.020 144.000,158.800 144.000 C 158.580 144.000,158.400 143.826,158.400 143.614 C 158.400 143.402,157.410 141.693,156.200 139.818 C 154.990 137.942,154.000 136.226,154.000 136.004 C 154.000 135.782,153.820 135.600,153.600 135.600 C 153.380 135.600,153.200 135.330,153.200 135.000 C 153.200 134.670,153.020 134.400,152.800 134.400 C 152.580 134.400,152.400 134.203,152.400 133.962 C 152.400 133.721,151.995 132.957,151.500 132.265 C 150.137 130.360,148.000 126.749,148.000 126.352 C 148.000 126.158,147.820 126.000,147.600 126.000 C 147.380 126.000,147.200 125.818,147.200 125.595 C 147.200 125.220,143.687 119.647,143.168 119.200 C 143.040 119.090,142.681 118.415,142.370 117.700 C 142.059 116.985,141.669 116.400,141.502 116.400 C 141.336 116.400,141.200 116.229,141.200 116.019 C 141.200 115.810,140.390 114.480,139.400 113.063 C 138.410 111.647,137.600 110.289,137.600 110.044 C 137.600 109.800,137.420 109.600,137.200 109.600 C 136.980 109.600,136.800 109.240,136.800 108.800 C 136.800 108.360,136.650 108.000,136.468 108.000 C 136.285 108.000,135.880 107.505,135.568 106.900 C 135.256 106.295,134.909 105.710,134.797 105.600 C 134.269 105.084,132.400 101.971,132.400 101.609 C 132.400 101.384,132.264 101.200,132.098 101.200 C 131.931 101.200,131.541 100.615,131.230 99.900 C 130.919 99.185,130.539 98.510,130.387 98.400 C 129.914 98.059,126.400 92.414,126.400 91.996 C 126.400 91.778,126.220 91.600,126.000 91.600 C 125.780 91.600,125.600 91.428,125.600 91.218 C 125.600 91.008,124.430 89.034,123.000 86.830 C 121.570 84.626,120.400 82.638,120.400 82.412 C 120.400 82.185,120.220 82.000,120.000 82.000 C 119.780 82.000,119.600 81.826,119.600 81.614 C 119.600 81.401,118.610 79.709,117.400 77.852 C 116.190 75.996,115.200 74.280,115.200 74.039 C 115.200 73.797,115.020 73.600,114.800 73.600 C 114.580 73.600,114.400 73.330,114.400 73.000 C 114.400 72.670,114.220 72.400,114.000 72.400 C 113.780 72.400,113.600 72.199,113.600 71.954 C 113.600 71.708,112.970 70.649,112.200 69.600 C 111.430 68.551,110.800 67.492,110.800 67.246 C 110.800 66.923,104.250 66.800,87.000 66.800 L 63.200 66.800 63.200 250.000 " stroke="none" fill="#040404" fill-rule="evenodd"></path><path id="path2" d="M336.200 250.000 C 336.200 350.938,336.335 433.440,336.500 433.338 C 336.892 433.096,336.892 66.904,336.500 66.662 C 336.335 66.560,336.200 149.062,336.200 250.000 M62.998 250.000 C 62.998 350.870,63.044 392.135,63.100 341.700 C 63.156 291.265,63.156 208.735,63.100 158.300 C 63.044 107.865,62.998 149.130,62.998 250.000 M103.400 124.800 C 103.741 125.460,104.111 126.000,104.221 126.000 C 104.331 126.000,104.141 125.460,103.800 124.800 C 103.459 124.140,103.089 123.600,102.979 123.600 C 102.869 123.600,103.059 124.140,103.400 124.800 M102.893 128.000 C 102.893 128.770,102.975 129.085,103.076 128.700 C 103.176 128.315,103.176 127.685,103.076 127.300 C 102.975 126.915,102.893 127.230,102.893 128.000 M103.331 136.200 C 103.333 137.740,103.405 138.321,103.492 137.491 C 103.579 136.661,103.577 135.401,103.489 134.691 C 103.400 133.981,103.329 134.660,103.331 136.200 M169.549 160.600 C 169.765 161.040,170.234 161.760,170.593 162.200 L 171.244 163.000 170.851 162.200 C 170.635 161.760,170.166 161.040,169.807 160.600 L 169.156 159.800 169.549 160.600 M294.509 352.400 C 294.509 353.390,294.587 353.795,294.682 353.300 C 294.778 352.805,294.778 351.995,294.682 351.500 C 294.587 351.005,294.509 351.410,294.509 352.400 M294.914 361.800 C 294.917 362.900,294.995 363.303,295.087 362.695 C 295.179 362.086,295.177 361.186,295.082 360.695 C 294.987 360.203,294.911 360.700,294.914 361.800 M294.825 364.924 C 294.809 365.388,294.621 365.543,294.300 365.355 C 294.025 365.194,294.155 365.467,294.590 365.962 C 295.489 366.986,295.808 366.594,295.237 365.166 C 294.943 364.432,294.845 364.374,294.825 364.924 M279.149 410.200 C 279.365 410.640,279.834 411.360,280.193 411.800 L 280.844 412.600 280.451 411.800 C 280.235 411.360,279.766 410.640,279.407 410.200 L 278.756 409.400 279.149 410.200 " stroke="none" fill="#62c7c7" fill-rule="evenodd"></path><path id="path3" d="M112.254 68.700 C 113.067 69.965,114.084 71.593,114.515 72.317 C 114.947 73.041,115.376 73.557,115.470 73.463 C 115.657 73.276,111.268 66.400,110.963 66.400 C 110.860 66.400,111.441 67.435,112.254 68.700 M294.138 210.200 C 294.110 289.400,294.202 355.280,294.343 356.600 C 294.579 358.801,294.534 109.076,294.293 79.200 C 294.236 72.050,294.166 131.000,294.138 210.200 M336.600 250.000 C 336.600 350.938,336.735 433.440,336.900 433.338 C 337.292 433.096,337.292 66.904,336.900 66.662 C 336.735 66.560,336.600 149.062,336.600 250.000 M117.239 76.576 C 117.701 77.359,118.156 78.000,118.250 78.000 C 118.534 78.000,117.236 75.669,116.802 75.401 C 116.580 75.264,116.777 75.793,117.239 76.576 M118.891 79.300 C 119.212 79.795,120.239 81.415,121.173 82.900 C 122.107 84.385,122.956 85.600,123.059 85.600 C 123.288 85.600,123.172 85.398,120.694 81.500 C 119.610 79.795,118.630 78.400,118.515 78.400 C 118.401 78.400,118.570 78.805,118.891 79.300 M124.061 87.623 C 124.562 88.515,125.217 89.448,125.515 89.696 C 125.813 89.943,125.478 89.213,124.769 88.073 C 123.241 85.614,122.760 85.309,124.061 87.623 M128.096 93.968 C 128.812 95.050,129.451 95.883,129.515 95.818 C 129.709 95.624,127.423 92.026,127.097 92.013 C 126.930 92.006,127.380 92.885,128.096 93.968 M132.043 100.300 C 133.615 102.895,135.600 105.801,135.600 105.508 C 135.600 105.127,131.570 98.800,131.327 98.800 C 131.221 98.800,131.544 99.475,132.043 100.300 M137.651 109.200 C 139.772 112.746,142.160 116.373,142.289 116.244 C 142.453 116.080,138.153 109.267,137.466 108.600 C 137.239 108.380,137.322 108.650,137.651 109.200 M144.861 120.610 C 145.150 121.464,148.129 126.004,148.292 125.841 C 148.387 125.747,147.622 124.439,146.593 122.935 C 145.564 121.431,144.785 120.385,144.861 120.610 M103.065 128.610 C 103.369 134.528,103.598 135.019,103.606 129.767 C 103.610 127.058,103.735 125.990,104.000 126.400 C 104.741 127.547,104.395 126.411,103.610 125.120 L 102.820 123.821 103.065 128.610 M150.195 129.200 C 151.188 131.042,154.160 135.573,154.290 135.443 C 154.374 135.359,153.520 133.877,152.393 132.150 C 150.454 129.181,149.479 127.872,150.195 129.200 M106.000 131.284 C 106.000 131.716,107.215 134.400,107.411 134.400 C 107.521 134.400,107.333 133.734,106.993 132.921 C 106.393 131.486,106.000 130.838,106.000 131.284 M103.656 284.924 C 103.619 383.985,103.734 433.565,104.000 433.400 C 104.476 433.106,104.493 141.843,104.017 138.400 C 103.849 137.190,103.687 203.126,103.656 284.924 M108.430 137.200 C 108.428 137.776,109.557 140.066,109.586 139.546 C 109.594 139.406,109.337 138.686,109.016 137.946 C 108.694 137.206,108.431 136.870,108.430 137.200 M110.482 141.434 C 110.987 142.333,111.723 143.503,112.118 144.034 C 112.512 144.565,112.422 144.265,111.918 143.366 C 111.413 142.467,110.677 141.297,110.282 140.766 C 109.888 140.235,109.978 140.535,110.482 141.434 M157.450 140.900 C 157.614 141.175,158.666 142.840,159.789 144.600 C 160.911 146.360,162.320 148.646,162.919 149.679 C 163.519 150.713,164.204 151.679,164.441 151.825 C 164.678 151.972,164.433 151.396,163.897 150.546 C 163.360 149.696,161.709 147.065,160.227 144.700 C 158.744 142.335,157.447 140.400,157.342 140.400 C 157.238 140.400,157.287 140.625,157.450 140.900 M113.600 146.702 C 113.600 146.922,113.870 147.326,114.200 147.600 C 114.535 147.878,114.800 147.921,114.800 147.698 C 114.800 147.478,114.530 147.074,114.200 146.800 C 113.865 146.522,113.600 146.479,113.600 146.702 M116.400 150.938 C 116.400 151.278,120.057 156.800,120.282 156.800 C 120.473 156.800,120.361 156.608,118.312 153.425 C 116.661 150.860,116.400 150.521,116.400 150.938 M165.370 153.500 C 166.202 155.050,168.396 158.256,168.398 157.923 C 168.400 157.571,165.167 152.400,164.945 152.400 C 164.854 152.400,165.045 152.895,165.370 153.500 M122.448 160.800 C 122.943 161.680,123.497 162.400,123.679 162.400 C 123.862 162.400,123.535 161.680,122.953 160.800 C 122.370 159.920,121.816 159.200,121.721 159.200 C 121.626 159.200,121.953 159.920,122.448 160.800 M171.329 163.000 C 172.172 164.603,174.396 167.874,174.398 167.513 C 174.400 167.223,171.385 162.437,170.941 162.025 C 170.807 161.901,170.982 162.340,171.329 163.000 M124.000 162.921 C 124.000 163.092,124.630 164.167,125.400 165.310 C 126.170 166.454,126.800 167.250,126.800 167.079 C 126.800 166.908,126.170 165.833,125.400 164.690 C 124.630 163.546,124.000 162.750,124.000 162.921 M129.200 171.321 C 129.200 171.583,133.081 177.630,133.483 177.996 C 133.891 178.366,132.748 176.346,131.152 173.877 C 129.474 171.281,129.200 170.922,129.200 171.321 M176.800 171.789 C 176.800 172.010,181.563 179.305,181.900 179.600 C 182.255 179.911,181.662 178.889,179.289 175.100 C 177.284 171.899,176.800 171.256,176.800 171.789 M135.200 180.906 C 135.200 181.224,139.549 188.026,140.120 188.600 C 140.663 189.147,140.265 188.442,137.864 184.600 C 135.773 181.256,135.200 180.461,135.200 180.906 M183.645 182.610 C 183.982 183.504,186.931 188.002,187.081 187.852 C 187.170 187.764,186.509 186.557,185.612 185.171 C 183.991 182.662,183.350 181.828,183.645 182.610 M141.245 190.610 C 141.582 191.504,144.531 196.002,144.681 195.852 C 144.770 195.764,144.109 194.557,143.212 193.171 C 141.591 190.662,140.950 189.828,141.245 190.610 M189.602 192.087 C 189.600 192.377,192.615 197.163,193.059 197.575 C 193.497 197.982,192.065 195.437,190.822 193.600 C 190.152 192.610,189.603 191.929,189.602 192.087 M145.785 197.900 C 146.402 198.835,146.983 199.600,147.076 199.600 C 147.364 199.600,145.833 197.166,145.232 196.669 C 144.920 196.411,145.168 196.965,145.785 197.900 M195.387 201.575 C 195.721 202.221,196.176 202.861,196.398 202.999 C 196.620 203.136,196.423 202.607,195.961 201.824 C 194.948 200.107,194.535 199.928,195.387 201.575 M149.651 204.100 C 150.416 205.538,152.895 209.200,153.103 209.200 C 153.207 209.200,153.027 208.795,152.703 208.300 C 152.379 207.805,151.533 206.455,150.823 205.300 C 149.534 203.205,148.743 202.394,149.651 204.100 M197.044 204.100 C 199.045 207.532,202.932 213.336,201.799 211.200 C 201.052 209.790,197.081 203.600,196.924 203.600 C 196.830 203.600,196.884 203.825,197.044 204.100 M202.466 212.800 C 205.355 217.516,207.761 221.173,207.889 221.044 C 208.062 220.872,202.968 212.835,202.284 212.200 C 202.047 211.980,202.129 212.250,202.466 212.800 M155.673 213.800 C 155.923 214.350,156.284 214.800,156.473 214.800 C 156.663 214.800,156.524 214.350,156.163 213.800 C 155.803 213.250,155.443 212.800,155.363 212.800 C 155.283 212.800,155.422 213.250,155.673 213.800 M156.800 215.317 C 156.800 215.486,157.610 216.833,158.600 218.308 C 159.590 219.784,160.400 220.853,160.400 220.683 C 160.400 220.514,159.590 219.167,158.600 217.692 C 157.610 216.216,156.800 215.147,156.800 215.317 M161.673 223.400 C 161.923 223.950,162.284 224.400,162.473 224.400 C 162.663 224.400,162.524 223.950,162.163 223.400 C 161.803 222.850,161.443 222.400,161.363 222.400 C 161.283 222.400,161.422 222.850,161.673 223.400 M210.170 225.100 C 211.002 226.650,213.196 229.856,213.198 229.523 C 213.200 229.171,209.967 224.000,209.745 224.000 C 209.654 224.000,209.845 224.495,210.170 225.100 M162.861 225.010 C 163.150 225.864,166.129 230.404,166.292 230.241 C 166.387 230.147,165.622 228.839,164.593 227.335 C 163.564 225.831,162.785 224.785,162.861 225.010 M216.170 234.700 C 217.002 236.250,219.196 239.456,219.198 239.123 C 219.200 238.771,215.967 233.600,215.745 233.600 C 215.654 233.600,215.845 234.095,216.170 234.700 M168.802 234.487 C 168.800 234.777,171.815 239.563,172.259 239.975 C 172.697 240.382,171.265 237.837,170.022 236.000 C 169.352 235.010,168.803 234.329,168.802 234.487 M221.801 243.600 C 222.723 245.340,225.758 249.975,225.890 249.843 C 226.051 249.682,222.571 244.085,221.884 243.400 C 221.616 243.133,221.588 243.199,221.801 243.600 M174.810 244.090 C 174.798 244.427,179.885 252.403,180.491 253.000 C 181.157 253.655,180.235 252.087,177.433 247.800 C 175.996 245.600,174.815 243.931,174.810 244.090 M180.845 253.810 C 181.220 254.804,183.830 258.778,184.115 258.789 C 184.288 258.795,183.675 257.675,182.753 256.300 C 180.966 253.635,180.598 253.156,180.845 253.810 M229.406 255.865 C 229.790 256.451,230.463 257.539,230.902 258.283 C 231.340 259.026,231.780 259.553,231.879 259.455 C 232.071 259.262,229.214 254.800,228.897 254.800 C 228.793 254.800,229.022 255.279,229.406 255.865 M186.039 262.176 C 186.501 262.959,186.956 263.600,187.050 263.600 C 187.334 263.600,186.036 261.269,185.602 261.001 C 185.380 260.864,185.577 261.393,186.039 262.176 M234.471 263.822 C 234.706 264.591,240.532 273.601,240.692 273.442 C 240.777 273.356,239.384 271.061,237.595 268.343 C 235.806 265.624,234.400 263.590,234.471 263.822 M188.851 266.700 C 191.401 270.871,194.871 275.984,193.806 274.000 C 192.982 272.463,188.292 265.200,188.124 265.200 C 188.020 265.200,188.347 265.875,188.851 266.700 M242.051 276.000 C 244.171 279.545,246.560 283.173,246.689 283.044 C 246.858 282.875,242.552 276.032,241.879 275.400 C 241.645 275.180,241.722 275.450,242.051 276.000 M195.600 277.321 C 195.600 277.583,199.481 283.630,199.883 283.996 C 200.291 284.366,199.148 282.346,197.552 279.877 C 195.874 277.281,195.600 276.922,195.600 277.321 M249.242 287.500 C 250.711 289.929,252.000 291.806,252.000 291.516 C 252.000 291.145,248.756 286.000,248.523 286.000 C 248.419 286.000,248.743 286.675,249.242 287.500 M201.600 286.921 C 201.600 287.183,205.481 293.230,205.883 293.596 C 206.291 293.966,205.148 291.946,203.552 289.477 C 201.874 286.881,201.600 286.522,201.600 286.921 M254.970 296.700 C 255.802 298.250,257.996 301.456,257.998 301.123 C 258.000 300.771,254.767 295.600,254.545 295.600 C 254.454 295.600,254.645 296.095,254.970 296.700 M207.798 296.800 C 208.574 298.277,212.491 304.400,212.659 304.400 C 212.763 304.400,212.716 304.175,212.556 303.900 C 210.540 300.443,206.704 294.718,207.798 296.800 M260.644 305.700 C 262.645 309.132,266.532 314.936,265.399 312.800 C 264.652 311.390,260.681 305.200,260.524 305.200 C 260.430 305.200,260.484 305.425,260.644 305.700 M216.051 310.100 C 216.775 311.459,219.290 315.200,219.480 315.200 C 219.674 315.200,219.581 315.036,217.493 311.700 C 215.972 309.270,215.085 308.285,216.051 310.100 M267.401 316.400 C 268.148 317.810,272.119 324.000,272.276 324.000 C 272.370 324.000,272.316 323.775,272.156 323.500 C 270.155 320.068,266.268 314.264,267.401 316.400 M220.400 316.961 C 220.400 317.343,222.776 320.800,223.038 320.800 C 223.148 320.800,222.661 319.945,221.954 318.900 C 220.388 316.583,220.400 316.597,220.400 316.961 M223.200 321.346 C 223.200 321.499,224.010 322.833,225.000 324.308 C 225.990 325.784,226.800 326.864,226.800 326.709 C 226.800 326.449,223.826 321.693,223.391 321.258 C 223.286 321.153,223.200 321.192,223.200 321.346 M273.261 325.810 C 273.550 326.664,276.529 331.204,276.692 331.041 C 276.787 330.947,276.022 329.639,274.993 328.135 C 273.964 326.631,273.185 325.585,273.261 325.810 M229.202 330.887 C 229.200 331.177,232.215 335.963,232.659 336.375 C 233.097 336.782,231.665 334.237,230.422 332.400 C 229.752 331.410,229.203 330.729,229.202 330.887 M278.096 333.568 C 278.812 334.650,279.461 335.473,279.538 335.396 C 279.700 335.233,277.250 331.600,276.978 331.600 C 276.877 331.600,277.380 332.485,278.096 333.568 M280.644 337.700 C 281.792 339.669,284.912 344.400,285.062 344.400 C 285.288 344.400,285.168 344.193,282.694 340.300 C 281.610 338.595,280.640 337.200,280.538 337.200 C 280.436 337.200,280.484 337.425,280.644 337.700 M235.200 340.490 C 235.200 340.839,239.539 347.650,240.111 348.200 C 240.341 348.420,240.105 347.880,239.587 347.000 C 238.133 344.527,235.200 340.175,235.200 340.490 M288.030 349.400 C 288.524 350.280,289.100 351.180,289.310 351.400 C 289.909 352.028,288.539 349.494,287.796 348.600 C 287.430 348.160,287.535 348.520,288.030 349.400 M241.201 350.088 C 241.200 350.415,244.712 355.990,245.303 356.600 C 245.968 357.285,244.518 354.714,242.822 352.200 C 241.931 350.880,241.202 349.929,241.201 350.088 M289.616 352.254 C 289.607 352.504,289.863 353.314,290.184 354.054 C 290.506 354.794,290.776 355.196,290.784 354.946 C 290.793 354.696,290.537 353.886,290.216 353.146 C 289.894 352.406,289.624 352.004,289.616 352.254 M291.172 356.646 C 291.675 358.319,292.346 359.865,292.369 359.400 C 292.394 358.865,291.417 356.083,291.086 355.753 C 290.942 355.609,290.981 356.011,291.172 356.646 M248.087 361.300 C 248.405 361.795,249.613 363.685,250.771 365.500 C 251.929 367.315,252.970 368.800,253.085 368.800 C 253.199 368.800,253.035 368.395,252.720 367.900 C 249.696 363.138,247.864 360.400,247.702 360.400 C 247.595 360.400,247.768 360.805,248.087 361.300 M255.673 373.400 C 255.923 373.950,256.284 374.400,256.473 374.400 C 256.663 374.400,256.524 373.950,256.163 373.400 C 255.803 372.850,255.443 372.400,255.363 372.400 C 255.283 372.400,255.422 372.850,255.673 373.400 M256.802 374.887 C 256.800 375.177,259.815 379.963,260.259 380.375 C 260.697 380.782,259.265 378.237,258.022 376.400 C 257.352 375.410,256.803 374.729,256.802 374.887 M261.673 383.000 C 261.923 383.550,262.284 384.000,262.473 384.000 C 262.663 384.000,262.524 383.550,262.163 383.000 C 261.803 382.450,261.443 382.000,261.363 382.000 C 261.283 382.000,261.422 382.450,261.673 383.000 M262.802 384.487 C 262.800 384.777,265.815 389.563,266.259 389.975 C 266.697 390.382,265.265 387.837,264.022 386.000 C 263.352 385.010,262.803 384.329,262.802 384.487 M268.386 393.548 C 268.986 394.700,271.920 399.262,272.263 399.575 C 272.691 399.967,271.576 397.990,269.952 395.477 C 268.248 392.841,267.604 392.048,268.386 393.548 M274.800 403.693 C 274.800 404.034,278.348 409.635,278.921 410.200 C 279.145 410.420,278.905 409.880,278.388 409.000 C 276.961 406.571,274.800 403.375,274.800 403.693 M280.800 413.320 C 280.800 413.664,284.835 420.000,285.054 420.000 C 285.301 420.000,284.565 418.682,282.752 415.877 C 281.074 413.282,280.800 412.922,280.800 413.320 M289.600 427.313 C 289.600 427.695,292.450 432.000,292.703 432.000 C 292.807 432.000,292.572 431.505,292.182 430.900 C 290.444 428.208,289.600 427.036,289.600 427.313 " stroke="none" fill="#047c7c" fill-rule="evenodd"></path><path id="path4" d="M74.900 66.700 C 81.445 66.761,92.155 66.761,98.700 66.700 C 105.245 66.638,99.890 66.588,86.800 66.588 C 73.710 66.588,68.355 66.638,74.900 66.700 M294.900 66.663 C 294.345 66.889,294.228 344.337,294.779 354.800 C 294.935 357.770,295.094 294.185,295.131 213.500 L 295.200 66.800 315.600 66.800 L 336.000 66.800 336.000 249.996 L 336.000 433.193 315.200 433.302 L 294.400 433.411 315.300 433.405 L 336.200 433.400 336.200 250.000 L 336.200 66.600 315.800 66.530 C 304.580 66.491,295.175 66.551,294.900 66.663 M110.828 67.200 C 110.815 67.530,111.247 68.340,111.788 69.000 C 112.329 69.660,112.778 69.975,112.786 69.700 C 112.794 69.425,112.653 69.200,112.473 69.200 C 112.292 69.200,111.854 68.615,111.498 67.900 C 111.142 67.185,110.841 66.870,110.828 67.200 M115.200 74.114 C 115.200 74.618,118.481 79.653,118.680 79.454 C 118.781 79.353,118.039 78.041,117.032 76.539 C 116.024 75.037,115.200 73.946,115.200 74.114 M120.400 82.510 C 120.400 82.948,123.702 88.032,123.874 87.859 C 123.966 87.767,123.309 86.557,122.412 85.171 C 120.684 82.497,120.400 82.121,120.400 82.510 M126.400 92.192 C 126.400 92.552,130.386 98.601,130.393 98.252 C 130.400 97.891,126.761 92.000,126.530 92.000 C 126.459 92.000,126.400 92.086,126.400 92.192 M132.467 101.900 C 132.958 103.007,134.650 105.594,134.883 105.597 C 135.039 105.599,134.607 104.700,133.924 103.600 C 132.861 101.890,132.033 100.924,132.467 101.900 M135.225 106.200 C 135.225 106.420,135.490 106.949,135.813 107.376 C 136.136 107.804,136.400 107.973,136.400 107.753 C 136.400 107.533,136.136 107.004,135.813 106.576 C 135.490 106.149,135.225 105.980,135.225 106.200 M136.800 108.933 C 136.800 109.300,136.980 109.600,137.200 109.600 C 137.420 109.600,137.600 109.790,137.600 110.022 C 137.600 110.462,140.706 115.200,140.995 115.200 C 141.135 115.200,137.381 108.925,136.947 108.433 C 136.866 108.342,136.800 108.567,136.800 108.933 M142.000 116.911 C 142.000 117.263,142.892 118.910,143.240 119.200 C 143.372 119.310,143.702 119.820,143.973 120.334 C 144.243 120.848,144.555 121.178,144.666 121.068 C 144.776 120.957,144.221 119.909,143.433 118.739 C 142.645 117.568,142.000 116.746,142.000 116.911 M102.667 123.067 C 102.520 123.213,102.403 123.618,102.406 123.967 C 102.411 124.488,102.475 124.501,102.766 124.042 C 103.186 123.377,103.619 124.155,105.587 129.115 C 106.310 130.939,107.000 132.334,107.118 132.215 C 107.237 132.096,107.148 131.594,106.921 131.099 C 106.693 130.605,106.322 129.750,106.097 129.200 C 105.210 127.037,103.209 122.800,103.075 122.800 C 102.997 122.800,102.813 122.920,102.667 123.067 M102.428 128.033 C 102.444 129.665,102.621 131.360,102.823 131.800 C 103.059 132.313,103.103 131.309,102.947 129.000 C 102.646 124.551,102.391 124.075,102.428 128.033 M148.010 126.509 C 148.005 126.678,148.422 127.488,148.938 128.309 C 149.453 129.129,150.188 130.311,150.570 130.935 C 150.951 131.559,151.358 131.976,151.472 131.861 C 151.587 131.746,151.476 131.416,151.225 131.126 C 150.975 130.837,150.151 129.610,149.395 128.400 C 148.639 127.190,148.016 126.339,148.010 126.509 M154.000 136.081 C 154.000 136.556,157.298 141.635,157.485 141.448 C 157.583 141.350,156.839 140.041,155.832 138.539 C 154.824 137.037,154.000 135.931,154.000 136.081 M108.813 137.076 C 108.806 137.338,108.980 137.664,109.200 137.800 C 109.420 137.936,109.600 138.295,109.600 138.597 C 109.600 139.259,112.050 143.283,112.301 143.032 C 112.398 142.935,111.920 142.046,111.239 141.056 C 110.557 140.066,110.000 139.008,110.000 138.704 C 110.000 138.021,108.830 136.417,108.813 137.076 M103.299 285.896 L 103.200 433.193 83.100 433.300 L 63.000 433.408 83.113 433.504 C 98.906 433.579,103.266 433.493,103.415 433.100 C 103.519 432.825,103.558 366.450,103.502 285.600 L 103.399 138.600 103.299 285.896 M160.000 145.717 C 160.000 146.206,162.199 149.600,162.516 149.600 C 162.693 149.600,162.261 148.745,161.554 147.700 C 160.009 145.414,160.000 145.402,160.000 145.717 M116.091 149.590 C 117.225 151.345,118.218 152.716,118.296 152.637 C 118.498 152.435,114.662 146.448,114.315 146.421 C 114.158 146.410,114.957 147.836,116.091 149.590 M165.267 154.300 C 165.758 155.407,167.450 157.994,167.683 157.997 C 167.839 157.999,167.407 157.100,166.724 156.000 C 165.661 154.290,164.833 153.324,165.267 154.300 M120.529 156.600 C 121.372 158.203,123.596 161.474,123.598 161.113 C 123.600 160.823,120.585 156.037,120.141 155.625 C 120.007 155.501,120.182 155.940,120.529 156.600 M168.009 158.700 C 168.014 158.865,168.385 159.450,168.833 160.000 L 169.648 161.000 169.014 159.700 C 168.411 158.465,167.989 158.045,168.009 158.700 M171.267 163.900 C 171.758 165.007,173.450 167.594,173.683 167.597 C 173.839 167.599,173.407 166.700,172.724 165.600 C 171.661 163.890,170.833 162.924,171.267 163.900 M126.013 165.338 C 125.994 165.845,127.657 168.077,127.884 167.849 C 127.992 167.741,127.876 167.416,127.627 167.126 C 127.377 166.837,126.915 166.240,126.599 165.800 C 126.284 165.360,126.020 165.152,126.013 165.338 M174.025 168.200 C 174.025 168.420,174.290 168.949,174.613 169.376 C 174.936 169.804,175.200 169.973,175.200 169.753 C 175.200 169.533,174.936 169.004,174.613 168.576 C 174.290 168.149,174.025 167.980,174.025 168.200 M128.586 169.500 C 128.935 170.215,129.306 170.800,129.410 170.800 C 129.808 170.800,129.552 170.163,128.767 169.200 L 127.952 168.200 128.586 169.500 M175.600 170.539 C 175.600 170.832,176.470 172.471,176.801 172.800 C 176.911 172.910,177.240 173.465,177.533 174.034 C 177.825 174.602,178.503 175.592,179.038 176.234 C 179.574 176.875,179.092 175.870,177.967 174.000 C 175.803 170.403,175.600 170.106,175.600 170.539 M130.237 172.200 C 130.597 172.750,130.957 173.200,131.037 173.200 C 131.117 173.200,130.978 172.750,130.727 172.200 C 130.477 171.650,130.116 171.200,129.927 171.200 C 129.737 171.200,129.876 171.650,130.237 172.200 M132.014 175.076 C 132.006 175.338,132.169 175.657,132.375 175.785 C 132.582 175.912,133.321 177.014,134.018 178.232 C 134.716 179.451,135.376 180.357,135.487 180.247 C 135.597 180.136,135.308 179.513,134.844 178.861 C 134.380 178.210,133.999 177.524,133.998 177.338 C 133.995 176.793,132.030 174.553,132.014 175.076 M180.022 177.800 C 180.027 178.329,181.142 179.791,181.369 179.565 C 181.466 179.468,181.202 178.941,180.782 178.394 C 180.361 177.847,180.020 177.580,180.022 177.800 M181.614 180.517 C 181.606 180.691,181.786 181.051,182.014 181.317 C 182.241 181.583,182.685 182.160,183.001 182.600 C 183.316 183.040,183.579 183.220,183.585 183.000 C 183.598 182.527,181.635 180.054,181.614 180.517 M136.237 181.800 C 136.597 182.350,136.957 182.800,137.037 182.800 C 137.117 182.800,136.978 182.350,136.727 181.800 C 136.477 181.250,136.116 180.800,135.927 180.800 C 135.737 180.800,135.876 181.250,136.237 181.800 M138.380 185.106 C 139.089 186.258,139.755 187.200,139.860 187.200 C 140.173 187.200,138.275 183.994,137.660 183.483 C 137.347 183.224,137.672 183.955,138.380 185.106 M140.430 188.455 C 141.010 189.540,145.594 196.533,145.900 196.800 C 146.275 197.129,145.621 196.017,142.899 191.700 C 140.549 187.974,139.278 186.304,140.430 188.455 M186.803 188.473 C 186.799 188.809,189.260 192.800,189.470 192.800 C 189.553 192.800,189.354 192.305,189.029 191.700 C 188.212 190.179,186.806 188.142,186.803 188.473 M192.800 198.079 C 192.800 198.538,195.315 202.418,195.496 202.238 C 195.590 202.144,195.021 201.109,194.233 199.939 C 193.445 198.768,192.800 197.931,192.800 198.079 M147.645 199.810 C 147.982 200.704,150.931 205.202,151.081 205.052 C 151.170 204.964,150.509 203.757,149.612 202.371 C 147.991 199.862,147.350 199.028,147.645 199.810 M198.845 207.800 C 199.255 208.859,201.037 211.594,201.319 211.597 C 201.495 211.599,201.061 210.745,200.354 209.700 C 198.946 207.616,198.611 207.194,198.845 207.800 M153.200 208.548 C 153.200 209.026,156.900 214.833,157.086 214.647 C 157.168 214.565,156.327 213.081,155.218 211.349 C 154.108 209.617,153.200 208.357,153.200 208.548 M204.000 216.124 C 204.000 216.459,208.327 223.220,208.913 223.800 C 209.461 224.342,209.083 223.670,206.664 219.800 C 204.552 216.423,204.000 215.661,204.000 216.124 M159.299 218.449 C 160.448 220.615,162.934 224.399,163.099 224.234 C 163.197 224.136,162.720 223.246,162.039 222.256 C 161.357 221.266,160.800 220.263,160.800 220.028 C 160.800 219.793,160.620 219.600,160.400 219.600 C 160.180 219.600,160.000 219.352,160.000 219.049 C 160.000 218.746,159.729 218.273,159.397 217.998 C 158.868 217.559,158.856 217.614,159.299 218.449 M210.067 225.900 C 210.558 227.007,212.250 229.594,212.483 229.597 C 212.639 229.599,212.207 228.700,211.524 227.600 C 210.461 225.890,209.633 224.924,210.067 225.900 M165.602 228.671 C 165.603 228.852,166.061 229.540,166.620 230.200 C 167.464 231.197,167.549 231.233,167.118 230.415 C 166.503 229.246,165.599 228.207,165.602 228.671 M212.825 230.200 C 212.825 230.420,213.090 230.949,213.413 231.376 C 213.736 231.804,214.000 231.973,214.000 231.753 C 214.000 231.533,213.736 231.004,213.413 230.576 C 213.090 230.149,212.825 229.980,212.825 230.200 M168.186 232.700 C 168.535 233.415,168.906 234.000,169.010 234.000 C 169.408 234.000,169.152 233.363,168.367 232.400 L 167.552 231.400 168.186 232.700 M214.400 232.513 C 214.400 232.826,215.256 234.457,215.601 234.800 C 215.711 234.910,216.040 235.465,216.333 236.034 C 216.625 236.602,217.313 237.592,217.860 238.234 C 218.613 239.114,218.556 238.941,217.628 237.528 C 216.953 236.498,216.400 235.544,216.400 235.407 C 216.400 235.270,215.950 234.495,215.400 233.686 C 214.850 232.877,214.400 232.349,214.400 232.513 M170.887 236.996 C 171.797 238.424,172.608 239.525,172.689 239.444 C 172.895 239.239,169.865 234.440,169.516 234.418 C 169.360 234.408,169.976 235.568,170.887 236.996 M218.825 239.800 C 218.825 240.020,219.090 240.549,219.413 240.976 C 219.736 241.404,220.000 241.573,220.000 241.353 C 220.000 241.133,219.736 240.604,219.413 240.176 C 219.090 239.749,218.825 239.580,218.825 239.800 M173.160 240.600 C 173.834 241.905,174.388 242.628,174.385 242.200 C 174.383 241.980,174.014 241.350,173.564 240.800 C 173.021 240.136,172.885 240.069,173.160 240.600 M220.406 242.500 C 220.403 242.885,220.580 243.200,220.800 243.200 C 221.020 243.200,221.200 243.470,221.200 243.800 C 221.200 244.130,221.386 244.400,221.614 244.400 C 222.024 244.400,221.807 243.855,220.820 242.400 C 220.470 241.884,220.411 241.899,220.406 242.500 M175.045 243.812 C 175.410 244.369,175.786 244.747,175.882 244.651 C 176.119 244.414,175.084 242.800,174.695 242.800 C 174.522 242.800,174.680 243.256,175.045 243.812 M176.497 246.100 C 176.773 246.595,177.108 247.090,177.240 247.200 C 177.372 247.310,177.702 247.820,177.973 248.334 C 178.243 248.848,178.558 249.176,178.671 249.062 C 178.784 248.949,178.311 248.034,177.619 247.028 C 176.300 245.111,175.636 244.562,176.497 246.100 M225.602 250.477 C 225.600 250.829,228.833 256.000,229.055 256.000 C 229.146 256.000,228.955 255.505,228.630 254.900 C 227.798 253.350,225.604 250.144,225.602 250.477 M180.595 252.400 C 181.588 254.242,184.560 258.773,184.690 258.643 C 184.774 258.559,183.920 257.077,182.793 255.350 C 180.854 252.381,179.879 251.072,180.595 252.400 M231.600 260.173 C 231.600 260.540,234.133 264.401,234.278 264.256 C 234.362 264.171,233.857 263.180,233.156 262.051 C 231.988 260.174,231.600 259.705,231.600 260.173 M186.929 262.600 C 187.772 264.203,189.996 267.474,189.998 267.113 C 190.000 266.823,186.985 262.037,186.541 261.625 C 186.407 261.501,186.582 261.940,186.929 262.600 M237.600 269.681 C 237.600 270.156,240.898 275.235,241.085 275.048 C 241.183 274.950,240.439 273.641,239.432 272.139 C 238.424 270.637,237.600 269.531,237.600 269.681 M192.970 272.300 C 193.802 273.850,195.996 277.056,195.998 276.723 C 196.000 276.371,192.767 271.200,192.545 271.200 C 192.454 271.200,192.645 271.695,192.970 272.300 M243.600 279.317 C 243.600 279.806,245.799 283.200,246.116 283.200 C 246.293 283.200,245.861 282.345,245.154 281.300 C 243.609 279.014,243.600 279.002,243.600 279.317 M198.414 281.076 C 198.406 281.338,198.569 281.657,198.775 281.785 C 198.982 281.912,199.721 283.014,200.418 284.232 C 201.116 285.451,201.776 286.357,201.887 286.247 C 201.997 286.136,201.708 285.513,201.244 284.861 C 200.780 284.210,200.399 283.524,200.398 283.338 C 200.395 282.793,198.430 280.553,198.414 281.076 M246.409 283.900 C 246.414 284.065,246.785 284.650,247.233 285.200 L 248.048 286.200 247.414 284.900 C 246.811 283.665,246.389 283.245,246.409 283.900 M202.637 287.800 C 202.997 288.350,203.357 288.800,203.437 288.800 C 203.517 288.800,203.378 288.350,203.127 287.800 C 202.877 287.250,202.516 286.800,202.327 286.800 C 202.137 286.800,202.276 287.250,202.637 287.800 M248.867 287.900 C 249.358 289.007,251.050 291.594,251.283 291.597 C 251.439 291.599,251.007 290.700,250.324 289.600 C 249.261 287.890,248.433 286.924,248.867 287.900 M204.055 290.000 C 204.355 290.550,204.710 291.090,204.844 291.200 C 204.978 291.310,205.382 291.974,205.741 292.675 C 206.100 293.376,206.578 294.063,206.803 294.202 C 207.334 294.530,204.918 290.384,204.121 289.600 C 203.575 289.063,203.568 289.105,204.055 290.000 M253.836 295.828 C 254.272 296.472,254.862 297.465,255.147 298.034 C 255.431 298.602,256.099 299.592,256.631 300.234 C 257.163 300.875,256.775 300.007,255.768 298.305 C 254.762 296.602,253.737 295.085,253.490 294.932 C 253.244 294.780,253.400 295.183,253.836 295.828 M210.037 299.496 C 212.215 302.831,213.045 303.862,211.732 301.600 C 209.809 298.286,208.580 296.424,208.308 296.413 C 208.148 296.406,208.926 297.793,210.037 299.496 M257.625 301.800 C 257.625 302.020,257.890 302.549,258.213 302.976 C 258.536 303.404,258.800 303.573,258.800 303.353 C 258.800 303.133,258.536 302.604,258.213 302.176 C 257.890 301.749,257.625 301.580,257.625 301.800 M213.200 304.530 C 213.200 304.690,214.190 306.300,215.400 308.107 C 218.074 312.101,218.324 311.960,215.743 307.912 C 213.770 304.820,213.200 304.061,213.200 304.530 M260.797 307.019 C 261.845 308.915,262.800 309.996,262.800 309.286 C 262.800 309.019,262.642 308.800,262.449 308.800 C 262.255 308.800,261.876 308.266,261.605 307.613 C 261.335 306.961,260.846 306.204,260.518 305.932 C 260.149 305.626,260.256 306.040,260.797 307.019 M263.622 311.400 C 263.627 311.929,264.742 313.391,264.969 313.165 C 265.066 313.068,264.802 312.541,264.382 311.994 C 263.961 311.447,263.620 311.180,263.622 311.400 M265.203 313.694 C 265.199 314.070,267.610 318.000,267.845 318.000 C 267.941 318.000,267.754 317.505,267.429 316.900 C 266.590 315.338,265.206 313.345,265.203 313.694 M220.045 315.410 C 220.382 316.304,223.331 320.802,223.481 320.652 C 223.570 320.564,222.909 319.357,222.012 317.971 C 220.391 315.462,219.750 314.628,220.045 315.410 M270.400 322.173 C 270.400 322.540,272.933 326.401,273.078 326.256 C 273.162 326.171,272.657 325.180,271.956 324.051 C 270.788 322.174,270.400 321.705,270.400 322.173 M226.037 325.010 C 226.444 326.033,229.341 330.393,229.504 330.229 C 229.605 330.128,229.308 329.513,228.844 328.861 C 228.380 328.210,228.000 327.550,228.000 327.396 C 228.000 327.242,227.521 326.550,226.937 325.858 C 226.352 325.166,225.947 324.785,226.037 325.010 M230.237 331.800 C 230.597 332.350,230.957 332.800,231.037 332.800 C 231.117 332.800,230.978 332.350,230.727 331.800 C 230.477 331.250,230.116 330.800,229.927 330.800 C 229.737 330.800,229.876 331.250,230.237 331.800 M276.400 331.681 C 276.400 332.156,279.698 337.235,279.885 337.048 C 279.983 336.950,279.239 335.641,278.232 334.139 C 277.224 332.637,276.400 331.531,276.400 331.681 M231.719 334.087 C 232.749 336.027,235.328 340.005,235.467 339.867 C 235.652 339.681,232.057 333.682,231.586 333.391 C 231.392 333.272,231.452 333.585,231.719 334.087 M282.445 341.400 C 282.855 342.459,284.637 345.194,284.919 345.197 C 285.095 345.199,284.661 344.345,283.954 343.300 C 282.546 341.216,282.211 340.794,282.445 341.400 M238.063 344.217 C 238.523 344.996,238.986 345.547,239.093 345.440 C 239.283 345.250,237.699 342.800,237.386 342.800 C 237.299 342.800,237.603 343.438,238.063 344.217 M285.209 345.900 C 285.214 346.065,285.585 346.650,286.033 347.200 L 286.848 348.200 286.214 346.900 C 285.611 345.665,285.189 345.245,285.209 345.900 M241.200 348.948 C 241.200 349.426,244.900 355.233,245.086 355.047 C 245.168 354.965,244.327 353.481,243.218 351.749 C 242.108 350.017,241.200 348.757,241.200 348.948 M287.600 349.920 C 287.600 350.096,287.776 350.416,287.992 350.632 C 288.207 350.847,288.830 352.098,289.375 353.412 C 289.920 354.725,290.374 355.571,290.383 355.291 C 290.404 354.656,288.132 349.600,287.825 349.600 C 287.701 349.600,287.600 349.744,287.600 349.920 M247.445 359.412 C 247.810 359.969,248.186 360.347,248.282 360.251 C 248.519 360.014,247.484 358.400,247.095 358.400 C 246.922 358.400,247.080 358.856,247.445 359.412 M249.679 362.804 C 250.364 363.907,251.004 364.729,251.101 364.632 C 251.281 364.452,248.895 360.800,248.597 360.800 C 248.507 360.800,248.994 361.702,249.679 362.804 M295.372 364.330 C 295.526 366.800,295.511 366.844,294.765 366.168 C 294.344 365.787,294.000 365.254,294.000 364.984 C 294.000 364.713,293.731 363.976,293.402 363.346 C 292.783 362.157,292.539 362.679,293.141 363.905 C 293.329 364.287,293.810 365.280,294.210 366.110 C 295.491 368.771,296.501 366.835,295.624 363.400 C 295.243 361.911,295.226 361.975,295.372 364.330 M253.001 368.000 C 253.958 369.806,256.961 374.372,257.100 374.233 C 257.190 374.143,256.408 372.749,255.364 371.135 C 253.551 368.334,252.293 366.666,253.001 368.000 M258.814 377.500 C 258.806 377.775,258.980 378.000,259.200 378.000 C 259.420 378.000,259.600 378.187,259.600 378.416 C 259.600 378.644,260.230 379.767,261.000 380.910 C 261.770 382.054,262.396 382.812,262.391 382.595 C 262.386 382.378,262.030 381.750,261.600 381.200 C 261.170 380.650,260.813 380.020,260.807 379.800 C 260.790 379.190,258.831 376.928,258.814 377.500 M265.600 388.216 C 265.600 388.334,266.230 389.367,267.000 390.510 C 268.743 393.098,268.840 392.761,267.140 390.027 C 265.957 388.123,265.600 387.703,265.600 388.216 M270.791 396.500 C 272.780 399.660,273.898 401.108,272.707 398.982 C 270.799 395.578,269.790 394.006,269.509 394.003 C 269.349 394.001,269.926 395.125,270.791 396.500 M275.037 403.400 C 275.397 403.950,275.757 404.400,275.837 404.400 C 275.917 404.400,275.778 403.950,275.527 403.400 C 275.277 402.850,274.916 402.400,274.727 402.400 C 274.537 402.400,274.676 402.850,275.037 403.400 M277.279 406.804 C 277.964 407.907,278.604 408.729,278.701 408.632 C 278.881 408.452,276.495 404.800,276.197 404.800 C 276.107 404.800,276.594 405.702,277.279 406.804 M280.929 412.600 C 281.772 414.203,283.996 417.474,283.998 417.113 C 284.000 416.823,280.985 412.037,280.541 411.625 C 280.407 411.501,280.582 411.940,280.929 412.600 M286.413 421.313 C 286.406 421.484,287.210 422.833,288.200 424.308 C 289.190 425.784,289.996 426.813,289.991 426.596 C 289.986 426.378,289.630 425.750,289.200 425.200 C 288.770 424.650,288.414 424.057,288.409 423.883 C 288.404 423.709,288.214 423.349,287.986 423.083 C 287.759 422.817,287.315 422.240,286.999 421.800 C 286.684 421.360,286.420 421.141,286.413 421.313 M292.418 431.000 C 292.418 431.220,292.770 431.850,293.200 432.400 C 293.630 432.950,293.982 433.220,293.982 433.000 C 293.982 432.780,293.630 432.150,293.200 431.600 C 292.770 431.050,292.418 430.780,292.418 431.000 " stroke="none" fill="#042b2b" fill-rule="evenodd"></path></g></svg>